<svg xmlns="http://www.w3.org/2000/svg" width="23.355" height="18.214" viewBox="0 0 23.355 18.214"><defs><style>.a{fill:#4c4c4c;}</style></defs><g transform="translate(-396.551 -3355.807)"><g transform="translate(0 -61)"><circle class="a" cx="3.819" cy="3.819" r="3.819" transform="translate(404.042 3416.807)"/><path class="a" d="M6.022,0h0a6.022,6.022,0,0,1,6.022,6.022V9.107a0,0,0,0,1,0,0H0a0,0,0,0,1,0,0V6.022A6.022,6.022,0,0,1,6.022,0Z" transform="translate(401.986 3425.914)"/></g><g transform="translate(0 -61)"><circle class="a" cx="2.329" cy="2.329" r="2.329" transform="translate(413.816 3420.067)"/><path class="a" d="M3.672,0h0A3.672,3.672,0,0,1,7.344,3.672V5.553a0,0,0,0,1,0,0H0a0,0,0,0,1,0,0V3.672A3.672,3.672,0,0,1,3.672,0Z" transform="translate(412.562 3425.62)"/></g><g transform="translate(0 -61)"><circle class="a" cx="2.329" cy="2.329" r="2.329" transform="translate(397.805 3420.067)"/><path class="a" d="M3.672,0h0A3.672,3.672,0,0,1,7.344,3.672V5.553a0,0,0,0,1,0,0H0a0,0,0,0,1,0,0V3.672A3.672,3.672,0,0,1,3.672,0Z" transform="translate(396.551 3425.62)"/></g></g></svg>