<svg xmlns="http://www.w3.org/2000/svg" width="141.862" height="163.808" viewBox="0 0 141.862 163.808"><defs><style>.a{fill:#f6c116;}.b{fill:#35103b;}.c{fill:#fff;}</style></defs><g transform="translate(-7894.325 -2502.868)"><path class="a" d="M8036.187,2543.82v81.9l-70.931,40.952-70.931-40.952v-81.9l70.931-40.952Z"/><path class="b" d="M7962.193,2603.63a34.451,34.451,0,0,1-5.786-1.56,31.509,31.509,0,0,1-3.008-1.277,23.054,23.054,0,0,0,.392,7.993c.274.128.547.257.827.377a35.538,35.538,0,0,0,8.977,2.5,40.533,40.533,0,0,0,13.418-.341,41.012,41.012,0,0,0,10.1-3.324c.058-.026.112-.056.169-.084a25.464,25.464,0,0,0-2.02-7.173,40.241,40.241,0,0,1-8.408,2.672,39.261,39.261,0,0,1-14.658.218"/><path class="b" d="M7968.654,2618.369a35.44,35.44,0,0,1-12.194-2.582c-.236-.424-.461-.863-.677-1.308a21.028,21.028,0,0,0,6.925,8.694,20.359,20.359,0,0,0,3.93,2.417c.726.362,1.474.7,2.251,1,7.9,3.049,16.126,1.921,21.168-2.287a23.006,23.006,0,0,1-8.566.149,15.759,15.759,0,0,0,5.627-9.8,40.666,40.666,0,0,1-18.464,3.718"/><path class="a" d="M7964.407,2597.753q-1.683-.147-3.31-.434a35.643,35.643,0,0,1-6.261-1.7,18.734,18.734,0,0,0-1.436,5.171,31.385,31.385,0,0,0,3.007,1.277,34.358,34.358,0,0,0,5.786,1.56,39.281,39.281,0,0,0,14.658-.217,40.273,40.273,0,0,0,8.407-2.673c-.052-.12-.1-.24-.157-.359a25.831,25.831,0,0,0-3.043-5,41.649,41.649,0,0,1-6.033,1.706,40.805,40.805,0,0,1-11.618.67"/><path class="a" d="M7977.013,2611.321a40.448,40.448,0,0,1-13.418.34,35.486,35.486,0,0,1-8.977-2.5c-.28-.12-.553-.249-.827-.377a25.97,25.97,0,0,0,1.784,5.267c.067.145.139.284.208.426q.324.669.677,1.308a35.44,35.44,0,0,0,12.194,2.582,40.65,40.65,0,0,0,18.464-3.719,22.1,22.1,0,0,0,.161-6.737c-.057.028-.111.058-.169.084a41.053,41.053,0,0,1-10.1,3.324"/><path class="c" d="M7991.638,2564.527h0v0"/><path class="b" d="M7983.085,2565.009a18.7,18.7,0,0,1-4.783-2.224,5.917,5.917,0,0,1-1.521-1.426,8.293,8.293,0,0,0-4.708,4.527,9.711,9.711,0,0,0,.891,8.613,10.6,10.6,0,0,0-1.379-.053c-1.227-4.24-2.5-8.282-3.71-11.788-2.629-7.473-4.8-12.061-6.639-14.028a22.158,22.158,0,1,0-25.1,36.445c2.994,1.34,9.769,1.727,16.7,1.723,4.022-.005,8.093-.141,11.507-.3a10.494,10.494,0,0,0,.512.978,12.987,12.987,0,0,0-3.189,1,13.94,13.94,0,0,0-6.825,7.145,35.557,35.557,0,0,0,6.261,1.7q1.626.288,3.31.435a40.771,40.771,0,0,0,11.618-.671,41.647,41.647,0,0,0,6.033-1.705,24.016,24.016,0,0,0-3.02-3.23,7.773,7.773,0,0,0,2.853-2.515c2.02-2.971,1.688-6.929-.5-10.1a12.217,12.217,0,0,0,9.228-2.678,9.871,9.871,0,0,1-5.643-.921,10.6,10.6,0,0,1-1.547-.9c.079.041.16.083.242.123a9.273,9.273,0,0,0,7.457.416,2.864,2.864,0,0,0,1.469-1.452c1.028-2.579-.071-5.78-2.316-8.436a5.9,5.9,0,0,1-1.944.284,18.466,18.466,0,0,1-5.256-.953m-45.416,16.631a11.258,11.258,0,0,1,9.232-20.537c1.1.486,3.9,2.352,10.335,9.4,3.116,3.444,6.659,7.649,10.175,12.065-14.957.859-26.54.5-29.742-.928m22.352-13.668c-5.343-5.849-9.135-9.221-11.6-10.311a14.951,14.951,0,0,0-9.24-.948,11.23,11.23,0,0,1,11.038-9.084q.209,0,.421.006a11.248,11.248,0,0,1,7.85,3.567c.818.876,2.665,3.689,5.831,12.7,1.448,4.186,2.983,9.161,4.427,14.329-3.028-3.742-6.032-7.276-8.727-10.255"/><path class="b" d="M7983.4,2564.009c3.667,1.168,6.928,1.207,7.284.089l0-.014,0-.01,0-.013.005-.011,0-.012s0-.007.006-.011v-.013l.006-.01v-.014l.006-.011,0-.011,0-.012,0-.012s0-.007,0-.011l0-.013.006-.011,0-.012,0-.011,0-.013.006-.011,0-.013,0-.01v-.012l.006-.012,0-.012.005-.011,0-.013,0-.01,0-.013,0-.011,0-.012.005-.012,0-.012.006-.012v-.012l.006-.011,0-.012s0-.008,0-.011l0-.013,0-.011,0-.013,0-.01,0-.012s0-.008,0-.011v-.014l.006-.01,0-.013.006-.011v-.012l.006-.011,0-.013,0-.011,0-.012.005-.012,0-.011.006-.011v-.014l.006-.011,0-.012.005-.011,0-.013.006-.01,0-.014,0-.01,0-.012,0-.012,0-.012.006-.011,0-.013.005-.011,0-.012,0-.011,0-.013.006-.011v-.012l.005-.011,0-.012.006-.012,0-.013,0-.01,0-.012.006-.012v-.012l.006-.011,0-.013.006-.011,0-.012.005-.011,0-.013.006-.01v-.014l.007-.01V2563l.006-.011v-.012l.006-.011v-.012l.007-.011v-.013l.006-.011v-.012l.007-.012v-.013l.006-.011,0-.012.006-.011v-.012l.006-.012v-.012l.008-.011v-.012l0-.012,0-.012.006-.011v-.012l.006-.011,0-.013,0-.011,0-.012s0-.007,0-.012l0-.012.007-.011v-.013l.006-.01,0-.012.006-.012v-.012l.006-.012v-.012l.007-.012v-.012l.006-.011,0-.012.006-.011,0-.013,0-.011,0-.012.007-.011v-.013l.007-.01v-.013l.006-.011,0-.013.006-.01,0-.013,0-.011,0-.012.006-.012,0-.012,0-.011,0-.012.006-.011,0-.013.005-.011,0-.013.006-.011v-.011l.006-.012,0-.012,0-.011,0-.014.007-.01v-.012l.006-.012,0-.012.005-.011v-.013l.007-.011v-.012l.006-.011,0-.012s0-.008,0-.012l0-.013,0-.01,0-.013.006-.01v-.014l.006-.01,0-.012.006-.011,0-.013.005-.011,0-.013,0-.011,0-.013,0-.011,0-.012.005-.011,0-.012.006-.012v-.012l.006-.011,0-.012.006-.011,0-.013,0-.011,0-.013.006-.011v-.012l.006-.011,0-.012s.006-.007.006-.011l0-.013.005-.011,0-.012,0-.012,0-.012,0-.011,0-.013.006-.01v-.013l0-.011,0-.012,0-.011,0-.013.006-.011,0-.013,0-.011,0-.011,0-.012,0-.012,0-.011,0-.013,0-.011,0-.013.005-.011v-.012l.006-.011,0-.012c0-.005,0-.008,0-.012l0-.012s0-.007.006-.011v-.012l.006-.011v-.013l.006-.011,0-.013.005-.011,0-.011,0-.012,0-.012s0-.007,0-.012l0-.012,0-.012,0-.012.006-.011v-.012l.006-.011v-.013l.006-.011,0-.013.006-.01,0-.012.005-.011,0-.014,0-.01,0-.013,0-.011,0-.012.006-.012v-.011l.007-.012,0-.012,0-.011,0-.012.005-.012,0-.012.006-.012,0-.012s0-.007.006-.011v-.012s0-.008.006-.011v-.012l.006-.013,0-.011.006-.011,0-.013,0-.011,0-.013,0-.011,0-.012.006-.011v-.012l.006-.011v-.013l.006-.011,0-.013.006-.011v-.012l.006-.011,0-.013,0-.01,0-.013.006-.012,0-.011.006-.011v-.013l.006-.01v-.014l.006-.011v-.012l.007-.011,0-.012.006-.012v-.012l.006-.011v-.012l.007-.011v-.013l.006-.011,0-.013.006-.011v-.012l.007-.012v-.011l.006-.012,0-.012.006-.011,0-.013.006-.011v-.012l.005-.011,0-.012.006-.012,0-.012.006-.012v-.011l.006-.011,0-.013.006-.011v-.013l.007-.01v-.014l.006-.01v-.012l.007-.012v-.012s.005-.008.006-.012v-.012l.007-.011v-.012l.007-.012,0-.012.005-.011v-.012l.006-.012,0-.012.006-.011,0-.012,0-.011,0-.013.006-.011v-.012l.006-.011v-.013l.006-.011,0-.012.006-.012v-.012l.006-.011,0-.012c0-.005,0-.008,0-.011l0-.013.006-.011v-.012l.006-.011v-.011l-4.818-.048a8.036,8.036,0,0,1-3.907-1.243l-4.493-3.116,0,0,0,.012,0,.012s0,.008,0,.013l-.005.011,0,.012,0,.011,0,.012-.006.011v.013l-.006.011v.013l-.007.011v.012l-.006.011,0,.012-.005.011,0,.014-.007.01v.012l-.006.012v.012l-.006.011a.053.053,0,0,1,0,.013l-.006.011v.011l-.006.012,0,.012,0,.011,0,.013-.006.011,0,.013-.005.01,0,.014,0,.011,0,.011,0,.012,0,.012-.005.011,0,.013,0,.011,0,.012-.006.012,0,.011-.006.012v.012l-.006.012,0,.011,0,.012,0,.012-.006.011,0,.013s0,.007,0,.01l0,.013,0,.012,0,.011-.006.012v.012s0,.007-.006.011l0,.013-.005.011,0,.012,0,.011,0,.013,0,.011,0,.013,0,.01,0,.012c0,.006,0,.008-.006.013l0,.011,0,.011,0,.013-.005.011,0,.013-.006.011,0,.011-.006.012v.012l0,.011a.029.029,0,0,0,0,.013l-.006.011v.012s0,.007,0,.011l0,.012-.006.012v.013l-.006.011,0,.011-.006.012,0,.012,0,.011,0,.013-.006.011v.013l-.005.011,0,.012,0,.011v.013l-.006.011,0,.012c0,.005,0,.007,0,.012l0,.011,0,.012,0,.012-.006.011,0,.013,0,.011,0,.012-.006.011v.012l-.006.012a.05.05,0,0,0,0,.013l-.006.01,0,.013-.006.01v.013l-.006.011v.012l-.007.012v.012l-.006.011v.012l-.005.011,0,.013,0,.011,0,.013-.006.01v.013l-.007.012v.012l-.006.012,0,.011,0,.012,0,.012-.006.01,0,.014,0,.01,0,.013-.006.011v.011l-.007.012v.013l-.006.011,0,.012-.006.012v.012l-.006.01v.014l-.007.01v.013l-.006.011v.012l-.007.012v.012l-.006.011v.013l-.007.011v.012l-.006.011,0,.012-.005.012,0,.012,0,.012,0,.011-.006.011,0,.013-.005.011,0,.012-.006.011v.013l-.007.011,0,.012-.006.012v.012l0,.011,0,.012-.006.012,0,.012-.006.011v.013l-.006.01v.014l-.007.01,0,.012,0,.011,0,.013-.006.011v.013l-.007.011v.012l-.007.012v.012l-.006.011a.049.049,0,0,1,0,.012l-.006.011,0,.012,0,.012v.012l-.006.011,0,.013-.006.011,0,.013,0,.01,0,.012-.006.011,0,.013,0,.011,0,.013,0,.011,0,.011-.006.012v.013l-.006.011v.012l-.006.012,0,.012-.006.011v.012l-.006.011,0,.013-.006.011v.012l-.007.011V2558l-.006.01,0,.014,0,.01,0,.013-.005.011,0,.012,0,.011s0,.009,0,.014,0,.006,0,.011l0,.011-.006.011v.013l-.006.011,0,.012-.005.011,0,.013,0,.011,0,.012-.006.012,0,.013-.006.011,0,.012,0,.01,0,.013-.006.011v.013l-.006.011v.012l-.007.012v.012l-.006.011,0,.012,0,.011,0,.013,0,.011,0,.012-.005.011,0,.013,0,.011,0,.012,0,.011,0,.012-.006.012,0,.012,0,.012,0,.012-.007.011v.012l-.006.011v.012s0,.007-.007.012v.013l-.006.011,0,.011s0,.008,0,.011l0,.013,0,.011,0,.013-.006.011v.012l-.006.012,0,.012-.006.011v.012l-.007.011,0,.013,0,.011v.012l-.006.011,0,.013-.006.011,0,.013,0,.011,0,.011-.006.011,0,.013s0,.007-.006.011v.013l-.006.011,0,.012,0,.012,0,.012-.005.011s0,.008,0,.012l0,.012,0,.012,0,.011,0,.012-.006.011,0,.013-.006.011v.013l-.006.01,0,.013-.006.011v.012l-.006.011v.013l-.007.011v.013l-.006.011v.012l-.006.011,0,.012-.006.012v.012l-.006.011,0,.012-.006.011v.013l-.007.011v.013l-.006.011v.012l-.006.012,0,.012-.007.011v.012l-.006.011v.013l-.006.011v.012l-.006.012v.012l-.006.01,0,.013-.006.011,0,.012-.006.012v.012l-.007.011v.013l-.006.011v.013l-.007.011,0,.011,0,.012,0,.012-.006.011v.013l-.007.011v.012l-.007.012v.012l-.006.011v.012l-.007.011v.013l-.007.012v.011s0,.007,0,.011l0,.013,0,.011,0,.012-.006.012,0,.011-.006.012v.012l-.006.012c-.356,1.118,2.327,2.971,5.994,4.137"/><path class="b" d="M7998.152,2558.076l-8.679-6.02a7.4,7.4,0,0,0-3.525-1.121l-7.407-.074-1.062-.011-2.092-.02c-1.064-.011-1.219.477-.345,1.083l1.186.823-3.209,4.836-.238-.158a.443.443,0,0,0-.561.055l-1.8,1.786a.447.447,0,0,0,.066.688l2.071,1.374a.446.446,0,0,0,.66-.2l.947-2.353a.446.446,0,0,0-.166-.538l-.239-.158,3.2-4.82,6.761,4.689a7.416,7.416,0,0,0,3.523,1.122l10.562.1c1.065.011,1.22-.477.346-1.082"/><path class="a" d="M7982.212,2571.1a1.634,1.634,0,0,0,1.666-.47,2.112,2.112,0,0,1-.387.555c-1.029,1.018-2.913.783-4.206-.525s-1.506-3.193-.477-4.21,2.912-.784,4.205.524a3.9,3.9,0,0,1,1.027,1.812,1.55,1.55,0,0,0-.9-.7,1.638,1.638,0,0,0-1.968.966,1.539,1.539,0,0,0,1.037,2.045"/></g></svg>