<svg xmlns="http://www.w3.org/2000/svg" width="282.32" height="119.86" viewBox="0 0 282.32 119.86"><defs><style>.a{fill:none;stroke:#35103b;stroke-width:0.5px;}.a,.b{stroke-miterlimit:10;}.b,.e{fill:#fff;}.b{stroke:#1a1818;}.c{fill:#35103b;}.d{fill:#f6c116;}</style></defs><g transform="translate(-851.579 -3016.248)"><g transform="translate(-6537.72)"><line class="a" x1="282.32" transform="translate(7389.298 3079.921)"/><path class="b" d="M7585.112,3105.855V3046.5l-51.4-29.677-51.4,29.677v59.353l51.4,29.677Z"/></g><g transform="translate(-6537.72)"><path class="c" d="M7529.5,3089.161a20.494,20.494,0,0,1-3.455-.931,19.123,19.123,0,0,1-1.8-.763,13.758,13.758,0,0,0,.234,4.773c.164.076.327.153.494.225a21.244,21.244,0,0,0,5.36,1.492,24.21,24.21,0,0,0,8.012-.2,24.5,24.5,0,0,0,6.029-1.985c.035-.016.067-.034.1-.05a15.2,15.2,0,0,0-1.206-4.284,24.023,24.023,0,0,1-5.021,1.6,23.43,23.43,0,0,1-8.752.13"/><path class="c" d="M7533.361,3097.962a21.159,21.159,0,0,1-7.281-1.542c-.141-.253-.275-.515-.4-.781a12.542,12.542,0,0,0,4.134,5.191,12.147,12.147,0,0,0,2.347,1.444c.434.216.881.416,1.345.594,4.715,1.821,9.628,1.147,12.639-1.365a13.741,13.741,0,0,1-5.115.089,9.415,9.415,0,0,0,3.36-5.85,23.979,23.979,0,0,1-5.577,1.8,24.225,24.225,0,0,1-5.448.424"/><path class="d" d="M7530.825,3085.652q-1.006-.089-1.976-.259a21.308,21.308,0,0,1-3.739-1.013,11.15,11.15,0,0,0-.857,3.087,19,19,0,0,0,1.795.763,20.494,20.494,0,0,0,3.455.931,23.431,23.431,0,0,0,8.752-.13,24.023,24.023,0,0,0,5.021-1.6c-.032-.071-.061-.143-.094-.214a15.4,15.4,0,0,0-1.818-2.988,24.868,24.868,0,0,1-3.6,1.019,24.373,24.373,0,0,1-6.937.4"/><path class="d" d="M7538.352,3093.754a24.184,24.184,0,0,1-8.012.2,21.232,21.232,0,0,1-5.36-1.492c-.167-.072-.33-.149-.494-.225a15.582,15.582,0,0,0,1.065,3.145c.04.086.084.169.125.255.129.266.263.527.4.78a21.159,21.159,0,0,0,7.281,1.542,24.225,24.225,0,0,0,5.448-.424,23.981,23.981,0,0,0,5.577-1.8,13.185,13.185,0,0,0,.1-4.022c-.034.016-.066.034-.1.05a24.553,24.553,0,0,1-6.029,1.985"/><path class="e" d="M7547.084,3065.812h0"/><path class="c" d="M7541.978,3066.1a11.125,11.125,0,0,1-2.856-1.328,3.535,3.535,0,0,1-.909-.851,4.954,4.954,0,0,0-2.811,2.7,5.8,5.8,0,0,0,.532,5.143,6.14,6.14,0,0,0-.823-.032c-.733-2.531-1.491-4.945-2.215-7.039-1.57-4.462-2.866-7.2-3.965-8.376a13.231,13.231,0,1,0-14.989,21.762c1.788.8,5.833,1.031,9.971,1.028,2.4,0,4.832-.084,6.871-.18a5.813,5.813,0,0,0,.306.584,7.741,7.741,0,0,0-1.9.6,8.322,8.322,0,0,0-4.076,4.267,21.222,21.222,0,0,0,3.739,1.012q.97.172,1.976.26a24.339,24.339,0,0,0,6.937-.4,24.743,24.743,0,0,0,3.6-1.018,14.176,14.176,0,0,0-1.8-1.928,4.644,4.644,0,0,0,1.7-1.5,5.325,5.325,0,0,0-.3-6.031,7.3,7.3,0,0,0,5.51-1.6,5.891,5.891,0,0,1-3.37-.55,6.36,6.36,0,0,1-.924-.54l.145.073a5.537,5.537,0,0,0,4.453.249,1.713,1.713,0,0,0,.877-.867c.614-1.54-.043-3.451-1.383-5.037a3.514,3.514,0,0,1-1.161.169,11,11,0,0,1-3.138-.569m-27.118,9.931a6.723,6.723,0,0,1,5.512-12.263c.655.29,2.327,1.4,6.171,5.613,1.861,2.056,3.977,4.567,6.076,7.2-8.931.513-15.847.3-17.759-.554m13.346-8.162c-3.19-3.492-5.455-5.506-6.926-6.156a8.93,8.93,0,0,0-5.518-.567,6.707,6.707,0,0,1,6.591-5.424c.084,0,.167,0,.251,0a6.714,6.714,0,0,1,4.688,2.13c.489.523,1.591,2.2,3.482,7.581.864,2.5,1.781,5.47,2.643,8.556-1.808-2.234-3.6-4.345-5.211-6.124"/><path class="c" d="M7542.167,3065.5c2.19.7,4.137.721,4.349.053l0-.008,0-.006,0-.008,0-.006,0-.007,0-.007v-.008l0-.006v-.008l0-.007v-.006l0-.007v-.008l0-.006,0-.008,0-.007v-.007l0-.006,0-.008,0-.007,0-.007,0-.007v-.007l0-.007v-.007l0-.007v-.007l0-.006,0-.008,0-.007,0-.007,0-.007v-.007l0-.007v-.007l0-.007v-.007l0-.007v-.007l0-.007v-.008l0-.006,0-.007,0-.006v-.009l0-.006v-.007l0-.007v-.007l0-.007v-.008l0-.006,0-.007,0-.008v-.006l0-.007v-.008l0-.007v-.007l0-.007v-.007l0-.006v-.008l0-.006,0-.008,0-.007v-.007l0-.007v-.007l0-.007v-.007l0-.007,0-.007,0-.007v-.007l0-.007v-.007l0-.007V3065l0-.006v-.007l0-.007v-.007l0-.007v-.008l0-.006v-.007l0-.007v-.007l0-.007v-.008l0-.006v-.007l0-.007v-.008l0-.006v-.007l0-.007v-.008l0-.006v-.007l0-.007v-.008l0-.006v-.008l0-.006v-.007l0-.007v-.008l0-.006v-.008l0-.007v-.007l0-.007v-.007l0-.006v-.008l0-.007v-.007l0-.007v-.007l0-.007v-.007l0-.006,0-.008,0-.006v-.008l0-.007v-.007l0-.007v-.007l0-.007,0-.007,0-.007v-.007l0-.007v-.007l.005-.007v-.008l0-.006v-.007l0-.007v-.008l0-.006v-.008l0-.006v-.007l0-.007v-.007l0-.007,0-.007,0-.007v-.008l0-.006v-.008l0-.007v-.006l0-.007v-.008l0-.006v-.008l0-.007v-.007l0-.007v-.007l0-.006v-.008l0-.006v-.008l0-.006,0-.008,0-.007v-.007l0-.007v-.007l0-.006v-.008l0-.007v-.007l0-.007v-.007l0-.007v-.007l0-.007,0-.008,0-.006v-.008l0-.006,0-.007,0-.007v-.007l0-.007v-.007l0-.007v-.007l0-.007,0-.008,0-.006v-.008l0-.006,0-.007,0-.007v-.008l0-.006,0-.008,0-.007v-.007l0-.006v-.008l0-.006v-.008l0-.006v-.008l0-.006,0-.008,0-.007v-.007l0-.007,0-.007,0-.006V3064l0-.006,0-.008,0-.007v-.007l0-.007v-.007l0-.006v-.008l0-.007,0-.007,0-.007v-.007l0-.007v-.007l0-.007,0-.007,0-.007,0-.007,0-.007v-.007l0-.007v-.008l0-.007v-.007l0-.006v-.008l0-.006v-.007l0-.007v-.008l0-.006v-.007l0-.007v-.008l0-.006,0-.008,0-.006v-.008l0-.007v-.007l0-.006v-.008l0-.006v-.008l0-.007v-.007l0-.007,0-.007,0-.007v-.007l0-.006v-.008l0-.007v-.007l0-.007v-.007l0-.007,0-.007,0-.007v-.007l0-.007v-.007l0-.007v-.007l0-.007v-.008l0-.006v-.007l0-.007,0-.007,0-.007,0-.007,0-.007v-.007l0-.007v-.007l0-.007v-.008l0-.006v-.007l0-.007v-.007l0-.007v-.008l0-.006v-.008l0-.006v-.007l0-.007v-.008l0-.006v-.008l0-.007v-.007l0-.006v-.008l0-.006v-.008l0-.007v-.007l0-.007,0-.007,0-.007v-.007l0-.007v-.007l0-.007v-.007l0-.007v-.007l0-.006v-.008l0-.006v-.008l0-.007v-.007l0-.007v-.007l0-.007v-.007l0-.007v-.008l0-.006v-.007l0-.007,0-.008,0-.006v-.008l0-.006,0-.007,0-.007v-.007l0-.007v-.008l0-.006v-.008l0-.007v-.007l0-.006v-.008l0-.006v-.008l0-.007v-.007l0-.006v-.007l-2.877-.028a4.8,4.8,0,0,1-2.333-.743l-2.682-1.86h0v.008l0,.007v.007l0,.007v.007l0,.007v.007l0,.007v.008l0,.006,0,.008,0,.006v.008l0,.006v.007l0,.007v.008l0,.006v.007l0,.007v.008l0,.006,0,.008,0,.007v.006l0,.007,0,.008,0,.006v.008l0,.007v.007l0,.006v.008l0,.007,0,.007,0,.006v.008l0,.007v.007l0,.007v.007l0,.007v.007l0,.007v.007l0,.007v.007l0,.007v.007l0,.007,0,.007,0,.007v.007l0,.007v.007l0,.007v.007l0,.007v.008l0,.006,0,.007,0,.007v.007l0,.007,0,.008,0,.006v.007l0,.008v.007l0,.006v.008l0,.006v.008l0,.007v.007l0,.006v.007l0,.007,0,.008,0,.006v.008l0,.006,0,.007,0,.008v.007l0,.007v.007l0,.007v.007l0,.007v.007l0,.007V3061l0,.007,0,.007,0,.007v.008l0,.006,0,.007,0,.007v.007l0,.007,0,.007,0,.007v.007l0,.007,0,.007,0,.007v.007l0,.007v.008l0,.006v.008l0,.006v.008l0,.006v.008l0,.007v.006l0,.007v.007l0,.007,0,.008,0,.006v.008l0,.006v.008l0,.007v.007l0,.007v.007l0,.007,0,.007,0,.006v.008l0,.006,0,.008,0,.007v.006l0,.007v.008l0,.007v.007l0,.007v.007l0,.006v.008l-.005.007v.007l0,.007v.007l0,.007v.007l0,.007v.008l0,.006v.008l0,.006v.007l0,.007v.007l0,.007,0,.007,0,.007v.007l0,.007v.007l0,.007v.008l0,.006v.008l0,.007v.007l0,.006v.008l0,.007v.007l0,.006v.008l0,.006v.008l0,.006v.008l0,.006v.008l0,.007v.007l0,.007v.007l0,.007v.007l0,.007,0,.007,0,.007v.007l0,.007v.007l0,.007v.008l0,.006v.007l0,.007v.007l0,.007v.007l0,.007v.007l0,.007v.007l0,.007v.008l0,.006v.008l0,.006v.008l0,.006v.008l0,.006,0,.008,0,.006v.007l0,.007v.008l0,.006v.008l0,.006v.008l0,.006v.008l0,.006,0,.008,0,.007v.007l0,.006,0,.008,0,.007v.007l0,.007v.007l0,.007,0,.007,0,.007v.007l0,.007v.007l0,.007v.007l0,.007v.007l0,.007v.007l0,.007v.008l0,.006v.007l0,.007v.008l0,.006,0,.008,0,.006,0,.008,0,.006v.007l0,.007v.007l0,.007v.008l0,.007v.007l0,.006v.008l0,.006v.008l0,.007v.007l0,.007v.007l0,.006v.008l0,.007v.007l0,.007v.007l0,.007v.007l0,.006v.008l0,.006v.008l0,.007v.007l0,.006v.008l0,.007v.007l0,.007v.007l0,.007,0,.007,0,.007v.008l0,.006v.007l0,.007,0,.007,0,.007v.007l0,.007,0,.007,0,.007v.007l0,.007,0,.008,0,.006v.008l0,.006v.008l0,.006v.008l0,.006v.007l0,.007v.008l0,.006v.007l0,.007v.008l0,.006v.008l0,.006v.008l0,.006v.008l0,.007v.007l0,.007v.007l0,.007v.007l0,.007v.007l0,.006v.008l0,.007v.007l0,.007v.007l0,.006v.008l0,.007v.007l0,.007v.007l0,.007v.008l0,.006v.008l0,.006v.007l0,.007v.007l0,.007v.007l0,.007v.007l0,.007,0,.008,0,.006v.008l-.005.006v.008l0,.007v.007l0,.006v.008l0,.006V3063l0,.007v.007l0,.007v.007l0,.007c-.213.667,1.39,1.774,3.579,2.47"/><path class="c" d="M7550.975,3061.96l-5.183-3.594a4.407,4.407,0,0,0-2.1-.67l-4.423-.044-.635-.006-1.249-.012c-.635-.007-.727.285-.206.647l.708.491-1.916,2.887-.142-.094a.267.267,0,0,0-.335.033l-1.074,1.067a.264.264,0,0,0,.04.41l1.236.821a.267.267,0,0,0,.394-.122l.566-1.405a.267.267,0,0,0-.1-.322l-.142-.094,1.911-2.878,4.037,2.8a4.427,4.427,0,0,0,2.1.67l6.306.062c.636.006.728-.286.207-.647"/><path class="d" d="M7541.456,3069.738a.975.975,0,0,0,1-.281,1.247,1.247,0,0,1-.231.331,2.045,2.045,0,1,1-.285-2.514,2.324,2.324,0,0,1,.613,1.082.924.924,0,0,0-.535-.416.977.977,0,0,0-1.175.577.919.919,0,0,0,.618,1.221"/></g></g></svg>