<?xml version="1.0" encoding="utf-8"?>
<!-- Generator: Adobe Illustrator 16.0.0, SVG Export Plug-In . SVG Version: 6.00 Build 0)  -->
<!DOCTYPE svg PUBLIC "-//W3C//DTD SVG 1.1//EN" "http://www.w3.org/Graphics/SVG/1.1/DTD/svg11.dtd">
<svg version="1.1" id="Capa_1" xmlns="http://www.w3.org/2000/svg" xmlns:xlink="http://www.w3.org/1999/xlink" x="0px" y="0px"
	 width="200px" height="144.5px" viewBox="0 0 200 144.5" enable-background="new 0 0 200 144.5" xml:space="preserve">
<g>
	<g>
		<g>
			<polygon fill="#391233" points="187.488,51.184 199.988,51.184 199.988,1.187 174.989,1.187 174.989,13.687 187.488,13.687 			
				"/>
			<polygon fill="#391233" points="12.499,13.687 137.492,13.687 137.492,1.187 0,1.187 0,144.928 93.744,144.928 93.744,132.43 
				12.499,132.43 			"/>
			<rect x="62.496" y="26.186" fill="#391233" width="74.996" height="12.499"/>
			<rect x="24.999" y="57.434" fill="#391233" width="74.996" height="12.499"/>
			<rect x="24.999" y="82.432" fill="#391233" width="62.496" height="12.499"/>
			<rect x="74.996" y="107.431" fill="#391233" width="12.499" height="12.499"/>
			<rect x="24.999" y="107.431" fill="#391233" width="37.498" height="12.499"/>
			<rect x="149.99" y="1.187" fill="#391233" width="12.5" height="12.5"/>
		</g>
	</g>
</g>
<rect y="-1" fill="#391233" width="202.5" height="146.5"/>
<path fill="#FFFFFF" d="M135.552,44.809c-0.249-0.267-0.508-0.526-0.774-0.775c-1.233-1.166-1.908-2.804-1.854-4.5
	c0.144-4.335-1.514-8.537-4.577-11.607c-3.087-3.039-7.277-4.693-11.606-4.583c-1.707,0.046-3.352-0.636-4.525-1.877
	c-5.906-6.327-15.824-6.667-22.151-0.76c-0.262,0.245-0.516,0.498-0.761,0.76c-1.145,1.277-2.807,1.968-4.519,1.877
	c-8.648-0.293-15.896,6.48-16.189,15.129c-0.012,0.352-0.012,0.704,0,1.056c0.056,1.708-0.625,3.356-1.872,4.524
	c-6.328,5.899-6.674,15.81-0.775,22.137c0.25,0.268,0.507,0.526,0.775,0.775c1.245,1.166,1.927,2.813,1.872,4.52
	c-0.143,4.335,1.514,8.537,4.577,11.607c0.957,0.929,2.034,1.726,3.203,2.37v46.194l24.375-12.188l24.375,12.188v-46.2
	c1.168-0.649,2.245-1.452,3.204-2.384c3.062-3.069,4.719-7.269,4.576-11.603c-0.057-1.707,0.626-3.356,1.873-4.523
	C141.104,61.047,141.45,51.136,135.552,44.809z M115.375,115.861l-14.626-7.313l-14.624,7.313V87.776
	c1.217,0.237,2.33,0.851,3.178,1.755c5.908,6.327,15.825,6.668,22.152,0.762c0.262-0.246,0.517-0.499,0.76-0.762
	c0.851-0.869,1.959-1.441,3.16-1.633V115.861L115.375,115.861z M128.416,59.541c-0.091,0.097-0.186,0.192-0.283,0.283h-0.011
	c-3.302,3.09-5.106,7.458-4.947,11.978c0.064,1.64-0.563,3.232-1.731,4.388c-1.136,1.193-2.741,1.826-4.387,1.729
	c-4.521-0.159-8.891,1.651-11.973,4.963c-2.341,2.389-6.175,2.428-8.563,0.086c-0.029-0.027-0.058-0.057-0.086-0.086
	c-2.962-3.172-7.106-4.973-11.446-4.973h-0.532c-3.266,0.12-6.011-2.43-6.131-5.696c-0.006-0.139-0.006-0.277-0.001-0.417
	c0.155-4.519-1.653-8.885-4.958-11.972c-2.388-2.232-2.516-5.977-0.284-8.365c0.092-0.098,0.186-0.192,0.284-0.283
	c3.306-3.089,5.114-7.457,4.958-11.978c-0.064-1.641,0.563-3.232,1.73-4.387c1.151-1.174,2.746-1.803,4.388-1.731
	c4.51,0.098,8.855-1.703,11.973-4.963c2.341-2.388,6.174-2.426,8.563-0.085c0.029,0.028,0.057,0.057,0.085,0.085
	c3.117,3.271,7.472,5.071,11.988,4.958c3.267-0.115,6.008,2.439,6.124,5.706c0.004,0.141,0.004,0.281-0.001,0.422
	c-0.155,4.52,1.652,8.886,4.958,11.973C130.521,53.407,130.646,57.152,128.416,59.541z"/>
<path fill="#FFFFFF" d="M100.749,36c-10.769,0-19.5,8.73-19.5,19.5c0,10.769,8.73,19.499,19.5,19.499c10.77,0,19.5-8.73,19.5-19.499
	C120.249,44.73,111.519,36,100.749,36z M100.749,65.249C95.365,65.249,91,60.884,91,55.5c0-5.385,4.365-9.75,9.749-9.75
	c5.386,0,9.751,4.365,9.751,9.75C110.5,60.884,106.135,65.249,100.749,65.249z"/>
</svg>
