<?xml version="1.0" encoding="utf-8"?>
<!-- Generator: Adobe Illustrator 16.0.0, SVG Export Plug-In . SVG Version: 6.00 Build 0)  -->
<!DOCTYPE svg PUBLIC "-//W3C//DTD SVG 1.1//EN" "http://www.w3.org/Graphics/SVG/1.1/DTD/svg11.dtd">
<svg version="1.1" id="Capa_1" xmlns="http://www.w3.org/2000/svg" xmlns:xlink="http://www.w3.org/1999/xlink" x="0px" y="0px"
	 width="47px" height="47px" viewBox="0 0 47 47" enable-background="new 0 0 47 47" xml:space="preserve">
<g>
	<g id="Layer_1_22_">
		<g>
			<path fill="#391233" d="M6.12,38.52V5.136h26.962v28.037l5.137-4.243V2.568C38.219,1.15,37.07,0,35.652,0H3.552
				C2.134,0,0.985,1.15,0.985,2.568v38.519c0,1.418,1.149,2.567,2.567,2.567H25.96l-3.63-5.135H6.12z"/>
			<path fill="#391233" d="M45.613,27.609c-0.473-0.446-1.2-0.467-1.698-0.058l-11.778,9.734l-7.849-4.709
				c-0.521-0.312-1.188-0.22-1.603,0.229c-0.412,0.443-0.457,1.116-0.106,1.612l8.506,12.037c0.238,0.337,0.625,0.539,1.037,0.543
				c0.004,0,0.008,0,0.012,0c0.408,0,0.793-0.192,1.035-0.524L45.77,29.301C46.148,28.779,46.084,28.055,45.613,27.609z"/>
			<path fill="#391233" d="M27.307,8.988h-15.41c-1.418,0-2.567,1.15-2.567,2.568s1.149,2.568,2.567,2.568h15.408
				c1.418,0,2.566-1.15,2.566-2.568S28.725,8.988,27.307,8.988z"/>
			<path fill="#391233" d="M27.307,16.691h-15.41c-1.418,0-2.567,1.15-2.567,2.568s1.149,2.568,2.567,2.568h15.408
				c1.418,0,2.566-1.149,2.566-2.568C29.874,17.841,28.725,16.691,27.307,16.691z"/>
			<path fill="#391233" d="M27.307,24.395h-15.41c-1.418,0-2.567,1.15-2.567,2.568s1.149,2.568,2.567,2.568h15.408
				c1.418,0,2.566-1.15,2.566-2.568C29.874,25.545,28.725,24.395,27.307,24.395z"/>
		</g>
	</g>
</g>
</svg>
