<svg xmlns="http://www.w3.org/2000/svg" width="100.524" height="157.708" viewBox="0 0 100.524 157.708"><defs><style>.a{fill:#35103b;}.b{fill:#fff;}</style></defs><g transform="translate(-2072.975 -2761.496)"><path class="a" d="M2160.593,2849.058a4.306,4.306,0,0,1,1.553,4.63,1.3,1.3,0,0,1-1.8,1.083c-2.735-.626-3.924.5-3.864,3.3a13.937,13.937,0,0,1-.509,4.26,7.684,7.684,0,0,1-9.013,5.5c-3.753-.705-7.464-1.656-11.165-2.608a2.662,2.662,0,0,0-3.037.847c-1.532,2.045-2.925,4.2-4.335,6.328a2.155,2.155,0,0,0-.16,1.051c-.1,3.15-.229,6.3-.265,9.452-.012,1.006-.222,1.429-1.352,1.414-4.864-.063-9.729-.044-14.594-.016-.876,0-1.308-.179-1.295-1.181.087-6.573-.075-13.156.231-19.718a38.9,38.9,0,0,1,7.851-22.044c3.894-5.178,8.722-9.386,13.433-13.741,3.3-3.054,6.566-6.161,9.711-9.377,8.89-9.09,7.635-21.926,1.252-30.24-8.675-11.3-25.125-14.707-37.264-7.565-6.853,4.032-10.651,10.294-12.825,17.7q-.172.59-.332,1.183A8.139,8.139,0,0,1,2084,2805.3l-11.02-1.312c.355-2.076.619-3.982,1.012-5.861,1.675-8.011,4.714-15.4,10.174-21.624a40.052,40.052,0,0,1,21.493-12.712c7.932-1.87,15.945-2.988,24.1-1.819,14.692,2.1,25.893,9.386,32.9,22.629a38.12,38.12,0,0,1,4.016,15.441c.236,3.455.617,6.9.8,10.358a5.516,5.516,0,0,1-2.079,5.13c-1.469,1.119-1.558,2.7-.631,4.361q4.016,7.191,8.064,14.364c1.6,2.815.246,5.158-3.007,5.42a19.669,19.669,0,0,0-4.784,1.066,1.536,1.536,0,0,0-.8,2.431c.239.429.385.911.584,1.363.872,1.983.393,3.107-1.684,3.827C2162.384,2848.625,2161.6,2848.788,2160.593,2849.058Z"/><path class="a" d="M2119.34,2912.057a8.556,8.556,0,1,1,8.606-8.539A8.587,8.587,0,0,1,2119.34,2912.057Z"/><path class="b" d="M2153.405,2919.2c-.392-.653-.72-.959-.715-1.259s.343-.6.535-.894c.227.266.588.508.641.8S2153.663,2918.5,2153.405,2919.2Z"/></g></svg>