<svg xmlns="http://www.w3.org/2000/svg" width="91.877" height="71.652" viewBox="0 0 91.877 71.652"><defs><style>.a{fill:#4d4e4e;}</style></defs><g transform="translate(-1649.343 -3261.342)"><circle class="a" cx="15.024" cy="15.024" r="15.024" transform="translate(1678.813 3261.342)"/><path class="a" d="M23.691,0h0A23.691,23.691,0,0,1,47.383,23.691V35.826a0,0,0,0,1,0,0H0a0,0,0,0,1,0,0V23.691A23.691,23.691,0,0,1,23.691,0Z" transform="translate(1670.723 3297.167)"/><circle class="a" cx="9.161" cy="9.161" r="9.161" transform="translate(1717.26 3274.167)"/><path class="a" d="M14.446,0h0A14.446,14.446,0,0,1,28.892,14.446v7.4a0,0,0,0,1,0,0H0a0,0,0,0,1,0,0v-7.4A14.446,14.446,0,0,1,14.446,0Z" transform="translate(1712.328 3296.012)"/><circle class="a" cx="9.161" cy="9.161" r="9.161" transform="translate(1654.276 3274.167)"/><path class="a" d="M14.446,0h0A14.446,14.446,0,0,1,28.892,14.446v7.4a0,0,0,0,1,0,0H0a0,0,0,0,1,0,0v-7.4A14.446,14.446,0,0,1,14.446,0Z" transform="translate(1649.343 3296.012)"/></g></svg>