<svg xmlns="http://www.w3.org/2000/svg" width="421.05" height="97.239" viewBox="0 0 421.05 97.239"><defs><style>.a{fill:#f6c116;}.b,.d{fill:#4a164b;}.c{fill:#fff;}.d{font-size:34.178px;font-family:AvantGardeMdITC-Bold, AvantGardeMdITC;letter-spacing:0.26em;font-weight:700;}.e{font-family:AvantageSmallNormal, AvantageSmall;font-weight:400;}</style></defs><g transform="translate(-729.636 -3041.708)"><rect class="a" width="400.287" height="51.423" transform="translate(729.636 3065.244)"/><path class="a" d="M1066.475,3066.018v48.619l42.105,24.31,42.106-24.31v-48.619l-42.106-24.31Z"/><path class="b" d="M1102.877,3103.564a24.711,24.711,0,0,1-4.135-1.114,22.82,22.82,0,0,1-2.149-.913,16.439,16.439,0,0,0,.28,5.712c.195.091.391.183.59.269a25.407,25.407,0,0,0,6.415,1.786,28.977,28.977,0,0,0,9.588-.244,29.32,29.32,0,0,0,7.215-2.375c.042-.019.08-.04.121-.06a18.209,18.209,0,0,0-1.443-5.126,28.747,28.747,0,0,1-6.009,1.909,28.042,28.042,0,0,1-10.473.156"/><path class="b" d="M1107.493,3114.1a25.312,25.312,0,0,1-8.713-1.845c-.169-.3-.33-.617-.484-.935a15.021,15.021,0,0,0,4.948,6.213,14.554,14.554,0,0,0,2.809,1.727c.518.259,1.053.5,1.608.712,5.643,2.178,11.523,1.372,15.126-1.634a16.448,16.448,0,0,1-6.121.106,11.263,11.263,0,0,0,4.021-7,29.055,29.055,0,0,1-13.194,2.657"/><path class="a" d="M1104.458,3099.364q-1.2-.1-2.365-.31a25.446,25.446,0,0,1-4.474-1.212,13.363,13.363,0,0,0-1.026,3.7,22.82,22.82,0,0,0,2.149.913,24.618,24.618,0,0,0,4.135,1.114,28.062,28.062,0,0,0,10.473-.155,28.778,28.778,0,0,0,6.008-1.91c-.037-.086-.072-.171-.112-.257a18.49,18.49,0,0,0-2.175-3.575,29.82,29.82,0,0,1-4.311,1.219,29.142,29.142,0,0,1-8.3.478"/><path class="a" d="M1113.466,3109.06a28.924,28.924,0,0,1-9.588.243,25.354,25.354,0,0,1-6.415-1.785c-.2-.086-.4-.178-.59-.269a18.493,18.493,0,0,0,1.274,3.763c.048.1.1.2.149.3.154.318.315.631.484.934a25.312,25.312,0,0,0,8.713,1.845,29.039,29.039,0,0,0,13.194-2.658,15.778,15.778,0,0,0,.115-4.813c-.041.02-.079.041-.121.06a29.361,29.361,0,0,1-7.215,2.375"/><path class="c" d="M1123.917,3075.622h0v0"/><path class="b" d="M1117.805,3075.967a13.338,13.338,0,0,1-3.418-1.589,4.239,4.239,0,0,1-1.087-1.019,5.924,5.924,0,0,0-3.364,3.235,6.94,6.94,0,0,0,.637,6.154,7.6,7.6,0,0,0-.985-.038c-.878-3.029-1.785-5.918-2.652-8.423-1.878-5.34-3.429-8.619-4.744-10.024a15.833,15.833,0,1,0-17.938,26.042c2.14.958,6.981,1.235,11.933,1.231,2.873,0,5.782-.1,8.222-.215a7.639,7.639,0,0,0,.366.7,9.277,9.277,0,0,0-2.278.716,9.961,9.961,0,0,0-4.878,5.106,25.446,25.446,0,0,0,4.474,1.212q1.163.205,2.365.31a29.108,29.108,0,0,0,8.3-.479,29.818,29.818,0,0,0,4.311-1.218,17.121,17.121,0,0,0-2.158-2.308,5.56,5.56,0,0,0,2.039-1.8,6.373,6.373,0,0,0-.354-7.218,8.727,8.727,0,0,0,6.594-1.914,7.049,7.049,0,0,1-4.033-.658,7.684,7.684,0,0,1-1.106-.647c.057.03.115.06.174.088a6.628,6.628,0,0,0,5.328.3,2.049,2.049,0,0,0,1.05-1.038c.734-1.843-.051-4.13-1.655-6.028a4.206,4.206,0,0,1-1.389.2,13.188,13.188,0,0,1-3.756-.681m-32.453,11.884a8.045,8.045,0,0,1,6.6-14.675c.783.347,2.784,1.681,7.384,6.717,2.227,2.461,4.759,5.465,7.271,8.621-10.688.614-18.964.36-21.253-.663m15.972-9.767c-3.817-4.179-6.527-6.589-8.288-7.368a10.689,10.689,0,0,0-6.6-.677,8.026,8.026,0,0,1,7.888-6.491c.1,0,.2,0,.3,0a8.035,8.035,0,0,1,5.609,2.549c.585.626,1.9,2.636,4.167,9.072,1.035,2.991,2.132,6.546,3.163,10.239-2.163-2.674-4.31-5.2-6.236-7.328"/><path class="b" d="M1118.032,3075.252c2.62.835,4.95.863,5.2.064l0-.01,0-.007,0-.01,0-.007,0-.009,0-.008v-.009l0-.007v-.01l0-.008,0-.008,0-.008,0-.009,0-.008v-.009l0-.008,0-.009,0-.007,0-.01,0-.007,0-.01,0-.007v-.009l0-.008v-.009l0-.008v-.009l0-.007,0-.01,0-.008,0-.008,0-.008,0-.009,0-.008v-.009l0-.008,0-.009,0-.008,0-.008,0-.008,0-.01,0-.007,0-.009,0-.007v-.01l.005-.008v-.009l0-.008v-.009l0-.007,0-.01,0-.007,0-.009,0-.009v-.008l0-.008,0-.01,0-.007,0-.009,0-.008v-.009l.005-.007v-.01l0-.007v-.009l0-.008v-.009l0-.008,0-.009,0-.008v-.009l0-.008,0-.009,0-.007v-.009l0-.008v-.009l0-.008v-.009l0-.008,0-.008,0-.008v-.009l0-.008v-.009l.005-.008v-.009l0-.008v-.009l0-.007v-.01l.005-.007v-.009l0-.009v-.008l0-.008v-.009l.005-.008v-.009l0-.008v-.008l0-.008v-.01l.005-.008v-.008l0-.008v-.009l0-.008v-.009l.005-.008v-.008l0-.009v-.009l.005-.008v-.008l0-.008v-.009l0-.008v-.008l0-.009v-.008l.005-.009v-.009l0-.007v-.009l.005-.008v-.009l0-.008v-.009l0-.008v-.009l0-.008,0-.009,0-.007v-.009l0-.009v-.008l.006-.008v-.009l0-.008v-.008l.005-.009v-.008l.005-.008v-.009l0-.008v-.009l0-.008,0-.009,0-.008,0-.008,0-.008,0-.01,0-.007v-.009l.005-.009V3074l0-.009,0-.009,0-.008v-.009l.005-.008v-.008l0-.008,0-.009,0-.008v-.009l.005-.008v-.009l0-.008,0-.008,0-.009,0-.009,0-.007v-.009l0-.008v-.009l.005-.008v-.009l0-.007v-.01l0-.008v-.008l0-.008,0-.009,0-.008,0-.009,0-.008,0-.009,0-.008,0-.009,0-.008,0-.008,0-.008v-.009l.005-.008v-.009l0-.008v-.009l0-.007,0-.009,0-.009v-.008l0-.008,0-.009,0-.008,0-.009,0-.008,0-.009,0-.007v-.01l0-.008,0-.008,0-.008,0-.009,0-.008v-.009l0-.008,0-.008,0-.008v-.009l0-.008,0-.01,0-.008,0-.008,0-.008v-.009l0-.008,0-.008,0-.009,0-.009,0-.008v-.008l0-.008v-.009l0-.008,0-.009,0-.008,0-.008,0-.009,0-.008,0-.008,0-.01,0-.008,0-.008,0-.008,0-.009,0-.008v-.009l0-.008v-.009l.005-.007v-.009l0-.008v-.01l0-.007v-.009l0-.008,0-.009,0-.008v-.008l0-.008,0-.009,0-.008,0-.009,0-.008v-.009l0-.008,0-.009,0-.008v-.008l0-.008v-.009l0-.009V3073l.005-.008v-.009l0-.008v-.009l0-.008,0-.009,0-.008v-.008l0-.008v-.009l0-.008,0-.009,0-.009v-.008l0-.008v-.009l0-.007v-.01l.005-.008v-.008l0-.008v-.009l0-.007v-.01l0-.008v-.008l.005-.009v-.008l.005-.008v-.01l.005-.007v-.009l0-.008v-.009l0-.008,0-.009,0-.008v-.008l.005-.009v-.008l0-.008,0-.009,0-.008v-.009l.005-.008v-.009l0-.008,0-.008,0-.009v-.009l0-.008v-.008l.005-.008v-.009l0-.008v-.009l.005-.007v-.01l.005-.007v-.009l0-.008v-.009l0-.008v-.009l.005-.008v-.009l.005-.008v-.009l0-.008v-.008l0-.008,0-.009,0-.008v-.009l0-.008,0-.009,0-.008v-.008l0-.008v-.009l0-.008,0-.009,0-.009v-.008l0-.008,0-.009,0-.007v-.01l0-.008v-.008l0-.008v-.007l-3.443-.035a5.739,5.739,0,0,1-2.791-.888l-3.211-2.227v0l0,.009,0,.008,0,.009,0,.009v.008l0,.008,0,.009,0,.008v.009l0,.007,0,.01,0,.008,0,.008,0,.008,0,.009,0,.008v.01l-.005.007v.008l0,.009v.009l0,.008v.009l-.005.008v.008l0,.008v.009l0,.008v.009l0,.008,0,.009,0,.007,0,.01,0,.008,0,.008,0,.008,0,.009,0,.008v.009l0,.008v.009l-.005.008v.008l0,.008v.009l0,.008,0,.009,0,.008,0,.009,0,.008,0,.009,0,.007,0,.009,0,.009,0,.008,0,.008v.009l0,.008v.009l0,.008,0,.008,0,.008v.009l0,.008,0,.009,0,.008,0,.009,0,.008v.009l0,.007,0,.009,0,.008,0,.01,0,.008v.008l-.005.008v.009l0,.008,0,.009,0,.008v.008l0,.008,0,.009,0,.009v.008l0,.009v.008l0,.008,0,.008,0,.009,0,.009,0,.008v.009l0,.007,0,.009,0,.008v.009l0,.008,0,.009,0,.008v.008l0,.009v.009l0,.007,0,.009,0,.008,0,.009,0,.008V3070l0,.008,0,.009,0,.008v.008l0,.008v.009l-.005.008v.009l-.005.008v.009l0,.008v.008l0,.008v.009l-.005.008v.009l0,.008v.009l0,.008v.009l-.005.008v.008l0,.009v.008l-.005.008v.01l0,.007v.009l0,.008v.008l-.005.008v.01l0,.008v.008l0,.009v.008l0,.008v.009l-.005.008v.009l0,.008v.008l-.005.009v.008l-.005.008v.009l-.005.008v.009l-.005.008v.008l0,.009v.009l0,.008,0,.008,0,.008,0,.009,0,.008,0,.009,0,.008v.009l-.005.008v.009l-.005.008v.008l0,.008v.009l-.005.008v.009l0,.008v.009l0,.007v.01l-.005.008v.008l0,.008v.009l-.005.008v.009l0,.008v.009l-.005.008v.009l0,.007,0,.01,0,.007v.009l0,.008v.009l0,.008v.009l-.005.008v.009l0,.007,0,.009,0,.008v.009l0,.008,0,.009,0,.008v.008l-.005.009v.009l0,.008v.009l0,.008v.008l-.005.008v.009l0,.008v.009l0,.008v.008l-.005.008v.01l0,.007,0,.01,0,.007,0,.009,0,.008,0,.009,0,.008,0,.009,0,.008,0,.008,0,.008v.01l0,.007,0,.009,0,.008,0,.009,0,.008,0,.008,0,.009,0,.009,0,.008v.009l0,.007v.009l0,.008v.009l-.005.008v.009l-.005.008v.009l0,.008v.008l0,.008,0,.009,0,.008,0,.009,0,.008,0,.009,0,.008,0,.008,0,.008v.009l0,.008,0,.009,0,.009v.008l-.005.008v.009l-.005.007v.009l0,.009v.009l-.005.007v.009l0,.008,0,.009,0,.008,0,.009,0,.008v.008l0,.009v.009l-.005.007v.009l-.005.008v.009l0,.008v.008l-.005.008v.01l0,.008,0,.009,0,.008,0,.008,0,.008,0,.009,0,.008v.009l0,.008v.008l0,.009,0,.008,0,.008,0,.009,0,.008,0,.009,0,.008v.009l0,.007,0,.01,0,.008v.008l0,.008v.009l-.005.008v.009l0,.008,0,.009,0,.008v.009l-.005.008v.008l-.005.008v.009l0,.008v.009l-.005.008v.009l0,.008v.008l0,.009v.008l0,.008v.009l-.005.008v.009l-.005.008v.009l-.005.007v.01l0,.008v.008l0,.009V3072l0,.007,0,.009,0,.008v.009l0,.008v.008l-.005.008v.01l0,.008v.008l-.005.008v.009l0,.008v.008l-.005.008v.01l-.005.008v.008l-.005.009v.008l0,.008v.009l-.005.008v.009l-.005.008v.009l0,.008,0,.008,0,.008v.009l-.005.008v.009l0,.008v.009l-.005.008c-.254.8,1.663,2.123,4.284,2.956"/><path class="b" d="M1128.572,3071.012l-6.2-4.3a5.287,5.287,0,0,0-2.519-.8l-5.293-.053-.759-.007-1.495-.015c-.76-.008-.871.341-.246.774l.847.588-2.293,3.455-.17-.113a.318.318,0,0,0-.4.04l-1.286,1.276a.319.319,0,0,0,.047.492l1.48.982a.319.319,0,0,0,.471-.146l.677-1.682a.317.317,0,0,0-.119-.384l-.17-.113,2.287-3.444,4.831,3.351a5.3,5.3,0,0,0,2.517.8l7.547.074c.761.008.872-.341.248-.774"/><path class="a" d="M1117.181,3080.32a1.167,1.167,0,0,0,1.191-.336,1.5,1.5,0,0,1-.277.4,2.447,2.447,0,1,1-.341-3.008,2.794,2.794,0,0,1,.734,1.295,1.109,1.109,0,0,0-.641-.5,1.168,1.168,0,0,0-1.406.69,1.1,1.1,0,0,0,.74,1.461"/><text class="d" transform="translate(768.079 3103.329)"><tspan x="0" y="0">ENROLL </tspan><tspan class="e" y="0">NOW</tspan></text></g></svg>