<svg xmlns="http://www.w3.org/2000/svg" width="898.582" height="222.834" viewBox="0 0 898.582 222.834"><defs><style>.a{fill:none;stroke:#35103b;stroke-miterlimit:10;}.b,.d{fill:#35103b;}.b{font-size:53.738px;}.b,.c{font-family:SegoeUI, Segoe UI;letter-spacing:0.26em;}.c{fill:#3c113c;font-size:47.94px;}.e{fill:#fbb200;}.f{fill:#fff;}</style></defs><g transform="translate(-192.607 -2023.603)"><g transform="translate(-1457.818)"><path class="a" d="M1850.9,2233.515l-29-42.3,29-49.678"/><path class="a" d="M2081.894,2245.937h302.014l32.8-53.22h132.3"/><text class="b" transform="translate(1878.052 2208.511)"><tspan x="0" y="0">OUR COURSES</tspan></text><line class="a" x2="158.44" transform="translate(1650.426 2191.583)"/><text class="c" transform="translate(1995.415 2115.487)"><tspan x="0" y="0">EXPLORE</tspan></text></g><g transform="translate(-1457.818)"><path class="d" d="M2304.924,2095.043a41.241,41.241,0,0,1-6.917-1.865,37.608,37.608,0,0,1-3.595-1.527,27.518,27.518,0,0,0,.469,9.555c.327.153.653.307.987.451a42.512,42.512,0,0,0,10.732,2.986,48.43,48.43,0,0,0,16.038-.407,49.059,49.059,0,0,0,12.07-3.973c.069-.032.133-.068.2-.1a30.43,30.43,0,0,0-2.415-8.575,48.088,48.088,0,0,1-10.051,3.2,46.937,46.937,0,0,1-17.52.261"/><path class="d" d="M2312.647,2112.66a42.372,42.372,0,0,1-14.577-3.085c-.282-.508-.55-1.033-.808-1.564a25.136,25.136,0,0,0,8.277,10.392,24.289,24.289,0,0,0,4.7,2.889c.868.433,1.762.833,2.691,1.19,9.439,3.645,19.275,2.3,25.3-2.733a27.481,27.481,0,0,1-10.239.178,18.841,18.841,0,0,0,6.726-11.711,48.577,48.577,0,0,1-22.07,4.444"/><path class="e" d="M2307.57,2088.017q-2.012-.176-3.956-.519a42.512,42.512,0,0,1-7.484-2.028,22.342,22.342,0,0,0-1.717,6.181,37.484,37.484,0,0,0,3.594,1.527,41.055,41.055,0,0,0,6.917,1.865,46.957,46.957,0,0,0,17.52-.26,48.113,48.113,0,0,0,10.05-3.2c-.062-.143-.121-.286-.187-.429a30.835,30.835,0,0,0-3.639-5.98,49.9,49.9,0,0,1-7.211,2.039,48.79,48.79,0,0,1-13.887.8"/><path class="e" d="M2322.638,2104.236a48.372,48.372,0,0,1-16.038.407,42.5,42.5,0,0,1-10.732-2.986c-.334-.144-.66-.3-.987-.451a31.032,31.032,0,0,0,2.131,6.3c.081.172.167.339.25.509q.387.8.808,1.564a42.4,42.4,0,0,0,14.577,3.086,48.58,48.58,0,0,0,22.07-4.446,26.4,26.4,0,0,0,.193-8.053c-.069.033-.133.069-.2.1a49.141,49.141,0,0,1-12.07,3.973"/><path class="f" d="M2340.12,2048.3h0v0"/><path class="d" d="M2329.9,2048.877a22.3,22.3,0,0,1-5.717-2.659,7.088,7.088,0,0,1-1.819-1.7,9.911,9.911,0,0,0-5.627,5.411,11.611,11.611,0,0,0,1.065,10.295,12.351,12.351,0,0,0-1.648-.063c-1.467-5.068-2.985-9.9-4.435-14.091-3.142-8.933-5.736-14.418-7.936-16.769a26.486,26.486,0,1,0-30.007,43.564c3.579,1.6,11.677,2.065,19.96,2.06,4.808-.005,9.674-.169,13.755-.361a12.134,12.134,0,0,0,.613,1.169,15.543,15.543,0,0,0-3.812,1.2,16.658,16.658,0,0,0-8.158,8.541,42.426,42.426,0,0,0,7.484,2.027q1.942.345,3.956.52a48.724,48.724,0,0,0,13.887-.8,49.777,49.777,0,0,0,7.211-2.037,28.579,28.579,0,0,0-3.609-3.862,9.284,9.284,0,0,0,3.41-3.006c2.415-3.552,2.018-8.283-.592-12.074a14.6,14.6,0,0,0,11.03-3.2,11.79,11.79,0,0,1-6.745-1.1,12.734,12.734,0,0,1-1.85-1.082c.095.049.191.1.29.146a11.085,11.085,0,0,0,8.913.5,3.416,3.416,0,0,0,1.756-1.737c1.229-3.082-.085-6.908-2.768-10.083a7.048,7.048,0,0,1-2.323.339,22.071,22.071,0,0,1-6.284-1.139m-54.287,19.879a13.458,13.458,0,0,1,11.036-24.548c1.31.58,4.658,2.812,12.353,11.236,3.725,4.118,7.96,9.143,12.163,14.422-17.879,1.027-31.724.6-35.552-1.11m26.718-16.337c-6.386-6.992-10.92-11.023-13.865-12.325a17.879,17.879,0,0,0-11.046-1.134,13.423,13.423,0,0,1,13.2-10.858c.167,0,.334,0,.5.008a13.438,13.438,0,0,1,9.384,4.263c.978,1.047,3.185,4.41,6.97,15.176,1.731,5,3.566,10.951,5.292,17.128-3.62-4.472-7.21-8.7-10.432-12.258"/><path class="d" d="M2330.276,2047.682c4.383,1.4,8.28,1.442,8.706.106a.074.074,0,0,1,0-.016l.006-.013,0-.016,0-.012,0-.014c0-.006.006-.009.007-.014v-.016l.007-.012,0-.016.007-.013a.071.071,0,0,0,0-.013l.006-.014c0-.005,0-.01,0-.015s.006-.008.006-.013l0-.015.007-.014,0-.014c0-.005.006-.009.006-.013l0-.016s.006-.007.006-.013,0-.01,0-.015.005-.008.006-.013l0-.014a.076.076,0,0,1,.007-.014l0-.015c0-.005.006-.008.007-.013l0-.015.006-.013,0-.015c0-.005,0-.009,0-.013l0-.015.005-.013a.043.043,0,0,0,0-.015l.007-.014v-.014l.007-.014c0-.005,0-.01,0-.014s0-.009.007-.014a.061.061,0,0,1,0-.014l.006-.014,0-.015.006-.012c0-.005,0-.011,0-.015s0-.009.007-.013v-.017l.007-.012,0-.015c0-.005.006-.008.007-.013l0-.015.007-.013,0-.015c0-.005.006-.009.006-.013s0-.01,0-.015,0-.009.006-.014l0-.014c0-.005.006-.009.007-.013a.089.089,0,0,0,0-.017l.006-.012,0-.015.006-.013s0-.01,0-.015l.008-.012c0-.005,0-.01,0-.017l.006-.011,0-.016.006-.014,0-.014c0-.005,0-.009.007-.014l0-.014c0-.005,0-.009,0-.014l0-.014.006-.014,0-.015s.006-.008.007-.013v-.014c0-.006.006-.009.007-.014l0-.014.007-.014a.04.04,0,0,0,0-.016l.007-.012c0-.005,0-.01,0-.014l.007-.014v-.015l.007-.013a.117.117,0,0,0,0-.015l.007-.013,0-.015.007-.014,0-.014.007-.013c0-.005,0-.01,0-.017l.007-.012,0-.014.007-.014,0-.015.006-.012a.038.038,0,0,0,0-.015l.008-.014v-.015a.042.042,0,0,0,.007-.013l0-.014.007-.014a.037.037,0,0,0,0-.015.029.029,0,0,0,.007-.014s0-.01,0-.014l.007-.013,0-.015.007-.014v-.014l.008-.014,0-.014.006-.014a.08.08,0,0,0,0-.015l.008-.013v-.014l.007-.013,0-.016.007-.013,0-.014c0-.006.006-.009.006-.015a.061.061,0,0,0,0-.014.069.069,0,0,0,.009-.014v-.014l.007-.013,0-.015.007-.013,0-.015.007-.014v-.014l.008-.014v-.015l.007-.013,0-.015.007-.012a.071.071,0,0,1,0-.016c0-.005.005-.009.006-.014l0-.014.008-.013v-.015l.009-.013v-.015l.007-.014,0-.014.008-.013v-.015l.007-.013,0-.015a.062.062,0,0,0,.007-.014s0-.01,0-.014.006-.009.006-.013l0-.015.007-.013a.045.045,0,0,1,0-.016l.006-.013,0-.015.008-.014v-.013l.007-.014a.045.045,0,0,1,0-.015l.006-.013,0-.016.007-.013,0-.014.007-.014a.04.04,0,0,1,0-.014l.006-.013v-.016l.008-.013v-.014l.007-.013,0-.015c0-.006.006-.009.006-.014s0-.01,0-.015.006-.008.007-.013l0-.015.007-.012v-.016l.008-.013,0-.015c0-.005,0-.008.007-.013l0-.015.007-.013v-.015l.006-.013,0-.016a.048.048,0,0,0,.007-.013l0-.015.006-.012,0-.015a.087.087,0,0,0,.006-.014.068.068,0,0,0,0-.015l.006-.013a.041.041,0,0,0,0-.015l.007-.013c0-.005,0-.01,0-.015s.006-.007.007-.013l0-.015.007-.014,0-.014.006-.013,0-.015s.007-.009.007-.013a.079.079,0,0,1,0-.015c0-.005.006-.008.007-.013l0-.015c0-.005.006-.009.007-.014l0-.014s0-.008.006-.013l0-.016s.007-.008.007-.012l0-.016c0-.005.006-.009.007-.013a.079.079,0,0,0,0-.015l.007-.013a.062.062,0,0,0,0-.015.031.031,0,0,0,.007-.013l0-.015c0-.005.005-.009.006-.014l0-.013.006-.014,0-.014.005-.014c0-.005,0-.01,0-.016s0-.007.006-.013,0-.011,0-.015l.006-.013,0-.015.007-.012,0-.015c0-.006,0-.01.006-.015a.04.04,0,0,1,0-.014s0-.008.006-.013,0-.01,0-.015,0-.008.006-.013a.079.079,0,0,0,0-.015l.006-.013a.045.045,0,0,0,0-.015l.006-.013,0-.014,0-.014,0-.015c0-.005,0-.008.007-.013l0-.016.007-.014,0-.014.007-.013,0-.015.007-.013v-.014l.007-.014,0-.015a.121.121,0,0,1,.007-.013l0-.014a.061.061,0,0,1,.006-.014l0-.016.006-.012,0-.015.006-.013,0-.015.007-.014v-.014l.008-.013a.07.07,0,0,1,0-.015s.005-.009.006-.013a.091.091,0,0,0,0-.015l.007-.014,0-.015.007-.014,0-.014c0-.005,0-.009.006-.013l0-.015s.005-.009.007-.013v-.014c0-.006.007-.01.008-.015l0-.014.007-.013,0-.015.006-.013a.046.046,0,0,0,0-.016l.006-.013,0-.015.007-.013v-.014l.007-.013c0-.005,0-.011,0-.016l.007-.013,0-.015.007-.014v-.014l.007-.013,0-.015.005-.013,0-.015.007-.014,0-.014.007-.013,0-.015.007-.012,0-.017.007-.013v-.014l.008-.014,0-.014.008-.014v-.015l.008-.013v-.014l.008-.014,0-.014.007-.014,0-.015.007-.013,0-.015.007-.014v-.014l.008-.013,0-.015.007-.013,0-.015.008-.014v-.015s.006-.008.006-.013l0-.014.007-.014c0-.005,0-.01,0-.015a.089.089,0,0,0,.007-.014v-.013l.008-.014v-.015l.007-.013,0-.015.008-.013v-.016l.008-.011v-.016l.008-.014v-.014c0-.005.006-.01.007-.014l0-.014.008-.014v-.014a.083.083,0,0,0,.008-.014l0-.015.006-.013v-.014l.007-.014,0-.015.006-.013c0-.005,0-.011,0-.015l.006-.013,0-.015.007-.013,0-.014.007-.014,0-.016.007-.013a.061.061,0,0,1,0-.014l.007-.015v-.013l.007-.014s0-.01,0-.014.005-.009.006-.014l0-.015.007-.013v-.014c0-.006.006-.009.007-.014l0-.012-5.76-.057a9.61,9.61,0,0,1-4.669-1.487l-5.371-3.725,0,0c0,.005,0,.011,0,.015s0,.008,0,.013,0,.011,0,.016l-.006.014,0,.014-.007.013,0,.015-.007.013c0,.005,0,.01,0,.015l-.006.013,0,.015-.008.014,0,.014-.006.013a.036.036,0,0,0,0,.015l-.007.013,0,.016-.008.013,0,.014-.007.014v.015l-.007.013c0,.006,0,.01,0,.015l-.007.014,0,.013-.006.014a.079.079,0,0,0,0,.015s-.006.008-.006.013a.024.024,0,0,0,0,.015l-.007.013c0,.005,0,.01,0,.015s-.007.008-.007.013l0,.016s-.005.008-.005.013,0,.01,0,.014-.005.008-.006.013l0,.015-.006.014s0,.01,0,.015l-.006.013a.036.036,0,0,0,0,.015l-.007.014,0,.013-.007.014V2038c0,.005-.007.008-.008.013s0,.01,0,.014-.005.01-.006.015l0,.014-.007.013a.041.041,0,0,1,0,.015c0,.005,0,.009-.006.013l0,.015c0,.005,0,.009-.006.014l0,.014c0,.006-.007.009-.007.014l0,.015s-.006.007-.007.013a.07.07,0,0,0,0,.015c0,.005-.006.009-.006.013s0,.01,0,.015l-.007.013,0,.014-.006.014c0,.005,0,.01,0,.015l-.006.013c0,.005,0,.01,0,.014s-.006.01-.007.015l0,.014-.006.013,0,.015c0,.006,0,.008-.006.013l0,.016-.007.014,0,.013-.007.013s0,.011,0,.015l-.006.013a.031.031,0,0,0,0,.016l-.006.013,0,.015s-.006.008-.006.013l0,.014c0,.006-.006.009-.007.014v.015a.047.047,0,0,0-.007.014l0,.013c0,.005,0,.01-.007.014l0,.014-.007.014a.1.1,0,0,1,0,.016.092.092,0,0,1-.007.013l0,.015-.006.013s0,.01,0,.015,0,.007-.005.013l0,.015s-.006.009-.007.013l0,.015c0,.005,0,.008-.006.013l0,.014-.007.014,0,.015-.007.013a.07.07,0,0,1,0,.015l-.006.013s0,.011,0,.015l-.006.013,0,.015-.006.013a.046.046,0,0,0,0,.016l-.007.013,0,.015-.007.012,0,.016-.007.013,0,.014-.007.014,0,.014-.007.014v.014l-.006.014a.028.028,0,0,0,0,.015l-.007.013,0,.015-.007.013,0,.015c0,.006-.006.008-.007.014l0,.015-.007.014,0,.013-.006.014,0,.014-.007.013,0,.016-.006.012,0,.016-.007.013v.014c0,.005-.007.009-.008.014v.016l-.007.012,0,.015-.007.014,0,.014-.007.013v.016l-.009.012v.016a.077.077,0,0,0-.007.013v.014l-.008.014v.014l-.008.014,0,.015-.007.013,0,.015-.007.013a.069.069,0,0,1,0,.014l-.007.014,0,.015-.006.014,0,.014-.007.013,0,.015-.006.013a.069.069,0,0,1,0,.015.048.048,0,0,1-.007.013v.015l-.008.014,0,.014-.007.014v.014c0,.005-.006.01-.006.014l0,.014-.007.014,0,.015-.006.013a.079.079,0,0,1,0,.015l-.007.013v.016l-.009.012v.015l-.007.013,0,.015-.007.014,0,.014-.008.014v.014l-.008.014a.091.091,0,0,1,0,.015l-.006.013c0,.005,0,.01,0,.015l-.007.013a.069.069,0,0,1,0,.014l-.006.014,0,.015-.007.013,0,.016-.008.013,0,.015-.006.012c0,.005,0,.01,0,.015s-.005.008-.007.013a.07.07,0,0,1,0,.015l-.006.014,0,.014-.006.014,0,.014c0,.005-.006.008-.008.014v.015l-.007.013,0,.015-.007.013,0,.015a.063.063,0,0,0-.007.013l0,.015-.006.012a.056.056,0,0,0,0,.016l-.007.014v.014l-.008.013a.079.079,0,0,1,0,.015l-.007.013,0,.016-.007.013a.083.083,0,0,1,0,.014c0,.005,0,.009-.006.014s0,.01,0,.014l-.007.014a.056.056,0,0,1,0,.016s-.005.007-.005.013l0,.013-.007.014a.089.089,0,0,1,0,.016s-.006.007-.006.012l0,.015-.006.013c0,.006,0,.01,0,.015s0,.009-.006.014,0,.009,0,.014l-.006.014s0,.009,0,.015,0,.007-.007.013l0,.015s-.005.008-.006.013l0,.014c0,.005-.005.009-.006.014l0,.015-.007.013,0,.015-.007.014,0,.014c0,.005-.006.009-.007.014l0,.014c0,.005,0,.008-.006.013l0,.015c0,.005-.005.008-.006.014s0,.009,0,.014l-.006.014s0,.009,0,.014l-.005.014c0,.005,0,.01,0,.014l-.006.014,0,.014-.007.014s0,.01,0,.015l-.007.014,0,.014-.007.013,0,.015s0,.008-.008.012v.016c0,.005,0,.007-.008.014v.014l-.008.014v.014c0,.005-.005.009-.006.013a.079.079,0,0,0,0,.015l-.007.014,0,.014-.007.014,0,.014-.007.014,0,.015-.007.012,0,.015c0,.006-.006.01-.008.013a.072.072,0,0,1,0,.016l-.006.013,0,.014-.007.013c0,.005,0,.011,0,.016s0,.008-.007.014,0,.009,0,.014l-.006.014,0,.014-.007.013,0,.015c0,.005,0,.009-.007.014v.015a.068.068,0,0,1-.008.013v.014c0,.006-.006.009-.006.014a.035.035,0,0,0,0,.015l-.007.012c0,.005,0,.01,0,.016l-.006.013c0,.006,0,.011,0,.015s0,.008-.006.013l0,.015-.006.012c0,.006,0,.011,0,.016l-.007.014v.014l-.007.013,0,.015-.008.013v.015l-.007.014,0,.014-.007.013,0,.016-.008.013v.014l-.007.014,0,.015-.007.013v.015l-.008.013,0,.015-.006.013,0,.015-.008.014,0,.014-.007.014v.014l-.008.014,0,.015-.008.012v.015l-.008.013v.016l-.008.013v.015c0,.005-.007.009-.007.014l0,.014a.04.04,0,0,0-.007.012l0,.016-.007.013a.04.04,0,0,0,0,.015l-.008.014v.014l-.008.013v.016a.054.054,0,0,0-.007.013l0,.015-.008.013a.059.059,0,0,1,0,.014l-.006.013,0,.015c0,.006,0,.008-.007.013v.016c0,.005,0,.008-.008.013v.015l-.007.014,0,.014-.006.013v.015l-.009.013v.015l-.008.014v.014c0,.005-.007.009-.007.014l0,.014-.007.013v.015l-.008.014,0,.014-.007.014,0,.015-.007.013c-.425,1.337,2.782,3.552,7.166,4.946"/><path class="d" d="M2347.907,2040.589l-10.375-7.195a8.854,8.854,0,0,0-4.213-1.341l-8.854-.088-1.27-.012-2.5-.025c-1.271-.012-1.456.57-.412,1.3l1.418.984-3.836,5.78-.285-.189a.532.532,0,0,0-.67.066l-2.151,2.135a.537.537,0,0,0-.155.431.53.53,0,0,0,.235.391l2.475,1.643a.533.533,0,0,0,.789-.244l1.132-2.813a.531.531,0,0,0-.2-.643l-.285-.188,3.826-5.762,8.081,5.6a8.881,8.881,0,0,0,4.211,1.341l12.625.123c1.273.014,1.458-.571.414-1.294"/><path class="e" d="M2328.853,2056.16a1.957,1.957,0,0,0,1.992-.562,2.506,2.506,0,0,1-.464.662c-1.229,1.218-3.481.937-5.027-.627s-1.8-3.816-.57-5.033,3.48-.937,5.027.627a4.66,4.66,0,0,1,1.227,2.167,1.851,1.851,0,0,0-1.072-.834,1.957,1.957,0,0,0-2.352,1.154,1.84,1.84,0,0,0,1.239,2.446"/></g></g></svg>