<?xml version="1.0" encoding="utf-8"?>
<!-- Generator: Adobe Illustrator 16.0.0, SVG Export Plug-In . SVG Version: 6.00 Build 0)  -->
<!DOCTYPE svg PUBLIC "-//W3C//DTD SVG 1.1//EN" "http://www.w3.org/Graphics/SVG/1.1/DTD/svg11.dtd">
<svg version="1.1" id="Capa_1" xmlns="http://www.w3.org/2000/svg" xmlns:xlink="http://www.w3.org/1999/xlink" x="0px" y="0px"
	 width="200px" height="200px" viewBox="0 0 200 200" enable-background="new 0 0 200 200" xml:space="preserve">
<g>
	<g>
		<path fill="#391233" d="M196.918,182.846l-12.988-12.989c3.996-5.995,5.994-12.989,5.994-19.983
			c0-21.98-17.984-39.966-39.966-39.966s-39.966,17.985-39.966,39.966c0,21.982,17.984,39.967,39.966,39.967
			c6.994,0,13.988-1.998,19.983-5.995l12.988,12.989c1.998,1.998,7.994,5.995,13.988,0
			C200.915,192.838,200.915,186.842,196.918,182.846z M149.958,169.856c-10.991,0-19.983-8.992-19.983-19.983
			c0-10.99,8.992-19.982,19.983-19.982s19.983,8.992,19.983,19.982C169.941,160.864,160.949,169.856,149.958,169.856z"/>
	</g>
</g>
<g>
	<g>
		<path fill="#391233" d="M149.958,0H10.076C4.081,0,0.084,3.997,0.084,9.992V189.84c0,5.995,3.997,9.992,9.991,9.992h106.911
			c-15.987-10.991-26.978-28.977-26.978-49.959c0-32.972,26.978-59.949,59.95-59.949c2.997,0,6.994,0,9.991,0.999V9.992
			C159.949,3.997,155.953,0,149.958,0z M80.017,79.933H30.059c-5.995,0-9.992-4.996-9.992-9.992c0-5.995,3.997-9.992,9.992-9.992
			h49.958c5.995,0,9.991,3.997,9.991,9.992C90.008,74.937,86.012,79.933,80.017,79.933z M129.975,39.966H30.059
			c-5.995,0-9.992-4.996-9.992-9.992c0-5.995,3.997-9.991,9.992-9.991h99.916c5.995,0,9.992,3.997,9.992,9.991
			C139.967,34.971,135.97,39.966,129.975,39.966z"/>
	</g>
</g>
</svg>
