<svg id="Layer_1" data-name="Layer 1" xmlns="http://www.w3.org/2000/svg" viewBox="0 0 155.84 136.26"><defs><style>.cls-1{fill:#fdfefe;}</style></defs><title>heart</title><g id="Y3wrEv"><path class="cls-1" d="M14,61.9c.41-3,.62-6.15,1.26-9.15a46,46,0,0,1,37.3-35.59q21.77-3.5,38.7,10.73c.19.16.4.31.65.51,1.49-1.15,2.93-2.33,4.46-3.4,27.56-19.35,65.71-4.45,72.42,28.5,3.12,15.31-.74,29.22-11.7,40.4-18,18.34-36.38,36.26-54.66,54.29-6.21,6.11-15,5.91-21.36-.35q-23.83-23.53-47.58-47.16A118.46,118.46,0,0,1,22.6,88.81a42.1,42.1,0,0,1-8.33-23.44c0-.85-.19-1.7-.28-2.55Z" transform="translate(-13.99 -16.39)"/></g></svg>