<svg xmlns="http://www.w3.org/2000/svg" width="401.814" height="100.943" viewBox="0 0 401.814 100.943"><defs><style>.a{fill:#1a1818;font-size:35.141px;font-family:SegoeUI, Segoe UI;letter-spacing:0.22em;}.b{fill:#35103b;}.c{fill:#fbb200;}.d{fill:#fff;}</style></defs><g transform="translate(-115.815 -4556.187)"><text class="a" transform="translate(348.63 4626.981)"><tspan x="-168.927" y="0">HIVE PARTNERS</tspan></text><g transform="translate(-1457.818)"><path class="b" d="M1615.38,4627.627a41.319,41.319,0,0,1-6.917-1.865,37.735,37.735,0,0,1-3.595-1.527,27.517,27.517,0,0,0,.469,9.555c.327.153.654.307.988.451a42.522,42.522,0,0,0,10.731,2.986,48.425,48.425,0,0,0,16.038-.407,49.032,49.032,0,0,0,12.07-3.973c.069-.032.134-.068.2-.1a30.46,30.46,0,0,0-2.414-8.575,48.064,48.064,0,0,1-10.051,3.2,46.953,46.953,0,0,1-17.521.261"/><path class="b" d="M1623.1,4645.244a42.373,42.373,0,0,1-14.576-3.085c-.283-.508-.551-1.033-.809-1.564a25.133,25.133,0,0,0,8.277,10.392,24.294,24.294,0,0,0,4.7,2.889c.868.433,1.763.833,2.691,1.19,9.44,3.645,19.275,2.3,25.3-2.733a27.486,27.486,0,0,1-10.239.178,18.838,18.838,0,0,0,6.727-11.711,48.578,48.578,0,0,1-22.071,4.444"/><path class="c" d="M1618.026,4620.6q-2.011-.176-3.956-.519a42.509,42.509,0,0,1-7.484-2.028,22.3,22.3,0,0,0-1.716,6.181,37.486,37.486,0,0,0,3.593,1.527,41.132,41.132,0,0,0,6.917,1.865,46.972,46.972,0,0,0,17.521-.26,48.1,48.1,0,0,0,10.05-3.2c-.063-.143-.122-.286-.188-.429a30.856,30.856,0,0,0-3.638-5.98,49.976,49.976,0,0,1-7.211,2.039,48.788,48.788,0,0,1-13.888.8"/><path class="c" d="M1633.094,4636.82a48.373,48.373,0,0,1-16.038.407,42.522,42.522,0,0,1-10.731-2.986c-.334-.144-.661-.3-.988-.451a31.049,31.049,0,0,0,2.132,6.3c.08.172.167.339.249.509.258.533.526,1.056.809,1.564a42.4,42.4,0,0,0,14.576,3.086,48.581,48.581,0,0,0,22.071-4.446,26.4,26.4,0,0,0,.192-8.053c-.068.033-.133.069-.2.1a49.134,49.134,0,0,1-12.07,3.973"/><path class="d" d="M1650.576,4580.884h0v0"/><path class="b" d="M1640.353,4581.461a22.269,22.269,0,0,1-5.718-2.659,7.078,7.078,0,0,1-1.818-1.7,9.909,9.909,0,0,0-5.627,5.411,11.61,11.61,0,0,0,1.065,10.3,12.307,12.307,0,0,0-1.648-.063c-1.468-5.068-2.986-9.9-4.436-14.091-3.141-8.933-5.736-14.418-7.935-16.769a26.486,26.486,0,1,0-30.008,43.564c3.579,1.6,11.677,2.065,19.961,2.06,4.807,0,9.673-.169,13.755-.361a12.152,12.152,0,0,0,.612,1.169,15.534,15.534,0,0,0-3.812,1.2,16.659,16.659,0,0,0-8.158,8.541,42.423,42.423,0,0,0,7.484,2.027q1.943.345,3.956.52a48.722,48.722,0,0,0,13.888-.8,49.848,49.848,0,0,0,7.211-2.037,28.636,28.636,0,0,0-3.61-3.862,9.272,9.272,0,0,0,3.41-3.006c2.416-3.552,2.018-8.283-.592-12.074a14.6,14.6,0,0,0,11.031-3.2,11.79,11.79,0,0,1-6.746-1.1,12.771,12.771,0,0,1-1.85-1.082c.1.049.192.1.29.146a11.086,11.086,0,0,0,8.914.5,3.425,3.425,0,0,0,1.756-1.737c1.228-3.082-.085-6.908-2.769-10.083a7.044,7.044,0,0,1-2.323.339,22.062,22.062,0,0,1-6.283-1.139m-54.288,19.879a13.457,13.457,0,0,1,11.036-24.547c1.31.579,4.659,2.811,12.354,11.235,3.725,4.118,7.96,9.143,12.162,14.422-17.879,1.027-31.724.6-35.552-1.11M1612.783,4585c-6.386-6.992-10.919-11.023-13.865-12.325a17.877,17.877,0,0,0-11.046-1.134,13.426,13.426,0,0,1,13.2-10.858c.167,0,.334,0,.5.008a13.438,13.438,0,0,1,9.384,4.263c.979,1.047,3.186,4.41,6.97,15.176,1.732,5,3.567,10.951,5.292,17.128-3.619-4.472-7.21-8.7-10.432-12.258"/><path class="b" d="M1640.732,4580.266c4.383,1.4,8.281,1.442,8.706.106,0,0,0-.011,0-.016l.006-.013,0-.016.005-.012,0-.014c0-.006.006-.009.007-.013l0-.017.007-.012v-.016l.007-.013a.034.034,0,0,0,0-.013l.005-.014a.039.039,0,0,0,0-.015s.007-.008.007-.013l0-.015.007-.014,0-.014s.007-.009.007-.013l0-.016s.006-.007.007-.013,0-.01,0-.015.005-.008.007-.013l0-.014s.005-.009.006-.014l0-.015s.006-.008.007-.013l0-.015.006-.012,0-.016s0-.009.005-.013l0-.015.006-.013a.039.039,0,0,0,0-.015l.007-.014,0-.014.007-.014c0-.005,0-.01,0-.014s0-.009.006-.014,0-.01,0-.014l0-.014,0-.015.006-.012c0-.005,0-.011,0-.015s.005-.009.006-.013l0-.017.007-.012,0-.015s.005-.008.007-.013v-.015l.007-.013,0-.015s.005-.009.005-.013a.14.14,0,0,0,0-.015.113.113,0,0,1,.006-.014l0-.014c0-.005.006-.009.007-.013a.086.086,0,0,0,0-.017l.007-.012,0-.015.007-.013s0-.01,0-.015l.008-.012s0-.01,0-.017l.006-.011,0-.016.005-.014,0-.014a.077.077,0,0,1,.007-.014l0-.014s0-.009.005-.014l0-.014.006-.014,0-.015s.006-.008.007-.013l0-.014c0-.006.005-.009.007-.013l0-.015.007-.014a.037.037,0,0,0,0-.016l.006-.012a.041.041,0,0,0,0-.014l.007-.014v-.015l.007-.013a.042.042,0,0,0,0-.015l.007-.013,0-.015.007-.014,0-.014.007-.013a.071.071,0,0,0,0-.017l.008-.012,0-.014.006-.014,0-.015.006-.012a.028.028,0,0,0,0-.015l.007-.013,0-.016s.006-.008.007-.013v-.014l.008-.014a.037.037,0,0,0,0-.015.088.088,0,0,0,.007-.014.076.076,0,0,0,0-.014l.007-.013,0-.015.007-.014v-.014l.009-.014v-.014l.006-.014s0-.01,0-.015l.007-.013,0-.014.007-.013,0-.016.006-.013,0-.014c0-.006.006-.009.006-.015a.033.033,0,0,0,0-.014.055.055,0,0,0,.009-.014v-.014l.007-.013,0-.015.007-.013,0-.015.007-.014,0-.014.008-.014v-.015l.007-.013,0-.015.007-.012a.036.036,0,0,1,0-.016c0-.005,0-.009.005-.014l0-.014.009-.013v-.015l.008-.013v-.015l.008-.014,0-.014.007-.013,0-.015.007-.013v-.015c0-.006.006-.009.008-.014s0-.01,0-.014.006-.009.006-.013l0-.015.007-.013a.043.043,0,0,1,0-.016l.006-.013,0-.015.008-.014v-.013l.008-.014a.04.04,0,0,1,0-.015l.006-.013,0-.016.008-.013,0-.013.007-.015a.078.078,0,0,1,0-.014l.006-.013,0-.016.007-.012,0-.015.007-.013,0-.015c0-.006.007-.009.007-.014s0-.01,0-.015,0-.008.006-.013l0-.015.007-.012v-.016l.008-.013,0-.014a.074.074,0,0,1,.008-.014v-.015l.007-.013,0-.015.006-.013,0-.016s.005-.008.006-.013l0-.015.006-.012,0-.015a.053.053,0,0,0,.006-.014.075.075,0,0,0,0-.015l.006-.013a.039.039,0,0,0,0-.015l.007-.013s0-.01,0-.015.006-.007.007-.013l0-.015.007-.014v-.014l.007-.013,0-.014s.006-.01.006-.014a.04.04,0,0,1,0-.015s.005-.008.006-.013l0-.015c0-.005.005-.009.006-.014l0-.014s.006-.008.006-.013l0-.016a.079.079,0,0,0,.007-.012v-.016a.041.041,0,0,0,.007-.013s0-.01,0-.015l.006-.013a.055.055,0,0,0,0-.015s.006-.008.006-.013l0-.015s.006-.008.006-.014l0-.013.006-.014,0-.014.006-.014s0-.01,0-.016.005-.007.006-.013,0-.011,0-.015l.007-.013,0-.015.007-.012,0-.015c0-.006,0-.01.005-.015s0-.009,0-.014,0-.008.006-.013a.058.058,0,0,1,0-.014c0-.005.005-.009.006-.014a.037.037,0,0,0,0-.015l.007-.013a.1.1,0,0,0,0-.015l.007-.013,0-.014.006-.014,0-.015s0-.008.006-.013l0-.016.006-.014,0-.014.006-.013,0-.015.007-.013,0-.014.007-.014,0-.015s.006-.008.007-.013l0-.014a.076.076,0,0,1,.007-.014l0-.016.006-.012,0-.015.006-.013,0-.015.007-.014v-.014l.008-.013a.075.075,0,0,1,0-.015s.005-.009.006-.013a.046.046,0,0,0,0-.015l.007-.014,0-.015.007-.014,0-.014s.005-.009.007-.013l0-.014s.005-.009.006-.014v-.014a.083.083,0,0,0,.008-.015l0-.014.007-.013,0-.015.007-.013a.085.085,0,0,0,0-.016l.006-.013,0-.015.007-.013v-.014l.007-.013a.086.086,0,0,0,0-.016l.007-.013,0-.015.007-.014v-.014l.007-.013,0-.015.006-.013,0-.015.007-.014,0-.014.007-.013,0-.015.007-.012v-.017l.007-.013,0-.014.007-.014,0-.014.008-.014v-.015l.007-.013,0-.014.007-.014,0-.014.007-.014,0-.015.007-.013v-.015l.008-.014v-.014l.007-.013,0-.015.007-.013,0-.015.008-.014v-.015s.006-.008.006-.013l0-.014.007-.014a.076.076,0,0,1,0-.015.128.128,0,0,0,.007-.014v-.013l.008-.014v-.015l.007-.013,0-.015.008-.013,0-.016.007-.011,0-.016.007-.014,0-.014s.005-.01.007-.014v-.014l.008-.014v-.014a.049.049,0,0,0,.008-.014l0-.015.006-.013,0-.014.007-.014,0-.015.007-.013s0-.011,0-.015l.006-.013,0-.015.007-.013,0-.014.007-.014v-.016l.007-.013a.058.058,0,0,1,0-.014l.007-.014,0-.014.006-.014s0-.01,0-.014.005-.009.006-.014l0-.015.007-.013,0-.014c0-.006.005-.009.007-.014v-.012l-5.759-.057a9.627,9.627,0,0,1-4.67-1.487l-5.371-3.725,0,0a.06.06,0,0,1,0,.015c0,.006-.005.008-.006.013s0,.011,0,.016l-.006.014,0,.014-.006.013,0,.015-.006.013a.08.08,0,0,0,0,.015l-.007.013,0,.015-.008.014,0,.014-.006.013a.08.08,0,0,0,0,.015l-.007.013,0,.016-.008.013v.014l-.007.014v.015l-.007.013c0,.006,0,.01,0,.015l-.007.014,0,.013-.007.014s0,.01,0,.015-.005.008-.006.013a.036.036,0,0,0,0,.015l-.008.013a.086.086,0,0,1,0,.015s-.006.009-.006.013l0,.016s-.005.008-.005.013a.061.061,0,0,0,0,.014c0,.006-.006.008-.006.013l0,.015-.006.014s0,.01,0,.015l-.006.013s0,.01,0,.015l-.007.014,0,.013-.007.014v.015s-.006.008-.008.013a.039.039,0,0,1,0,.015s-.005.009-.005.014l0,.014-.007.013c0,.005,0,.01,0,.015s-.005.009-.006.013l0,.015a.108.108,0,0,0-.007.014l0,.014c0,.006-.006.009-.007.014v.015a.04.04,0,0,0-.007.013.037.037,0,0,0,0,.015s-.007.009-.007.013,0,.01,0,.015l-.006.013,0,.014-.007.014s0,.01,0,.015l-.006.013s0,.01,0,.014-.005.01-.007.015l0,.014-.006.013,0,.015c0,.006,0,.008-.005.013l0,.016-.007.014,0,.013-.007.013s0,.011,0,.015l-.006.013a.046.046,0,0,0,0,.016l-.007.013,0,.015s-.006.008-.006.013l0,.014c0,.006-.005.009-.007.014v.015s-.006.008-.007.014l0,.013c0,.005-.006.01-.007.014l0,.014-.006.014c0,.005,0,.01,0,.016a.05.05,0,0,1-.007.013v.015l-.007.013s0,.01,0,.015,0,.007-.006.013l0,.015s-.005.009-.007.013l0,.015s-.005.008-.006.013l0,.014-.006.014,0,.015-.007.013a.075.075,0,0,1,0,.015l-.006.013s0,.011,0,.015l-.007.013,0,.015-.006.013a.042.042,0,0,0,0,.016l-.007.013,0,.015-.007.012v.016l-.008.013v.014l-.008.015v.013l-.007.014,0,.014-.006.014a.04.04,0,0,0,0,.015l-.007.013,0,.015-.007.013v.015c0,.006-.007.008-.008.014v.015l-.008.014,0,.013-.007.014,0,.014-.007.013,0,.016-.007.012,0,.016-.007.013v.014c0,.005-.007.009-.009.014v.016l-.007.012,0,.015-.007.014v.014l-.007.013,0,.016-.008.012,0,.016a.081.081,0,0,0-.007.013v.014l-.008.014v.014l-.008.014v.015l-.008.013v.015l-.008.013a.071.071,0,0,1,0,.014l-.006.014,0,.015-.007.014,0,.014-.007.013,0,.015-.007.013a.036.036,0,0,1,0,.015.045.045,0,0,1-.007.013v.015l-.009.014v.014l-.008.014v.014a.039.039,0,0,0-.007.014l0,.014-.007.014,0,.015-.007.013a.038.038,0,0,1,0,.015l-.007.013v.016l-.009.012v.015l-.007.013v.015l-.008.014v.014l-.008.014v.014l-.008.014s0,.01,0,.015l-.006.013a.039.039,0,0,1,0,.015l-.007.013a.033.033,0,0,1,0,.014l-.006.014v.015l-.008.013v.016l-.008.013,0,.015-.007.012s0,.01,0,.015-.006.008-.007.013a.077.077,0,0,1,0,.016l-.007.013,0,.014-.006.014,0,.014s-.005.008-.008.014v.015l-.007.013v.015l-.007.013,0,.015a.041.041,0,0,0-.008.013l0,.015-.006.012c0,.006,0,.012,0,.016l-.007.014v.014l-.008.013a.039.039,0,0,1,0,.015l-.006.013,0,.016-.006.013s0,.01,0,.014a.09.09,0,0,0-.007.014c0,.005,0,.01,0,.014l-.006.014s0,.01,0,.016-.006.007-.006.013l0,.013-.008.014a.076.076,0,0,1,0,.016s-.005.007-.006.012l0,.015-.005.013a.043.043,0,0,0,0,.015.034.034,0,0,0-.006.014s0,.009,0,.014l-.006.014s0,.01,0,.015-.006.007-.007.013l0,.015s-.006.008-.007.013l0,.014a.076.076,0,0,1-.007.014l0,.015-.007.013v.015l-.008.014v.015s-.007.008-.007.013l0,.014s-.006.008-.007.013l0,.015s-.006.008-.007.014,0,.01,0,.014l-.006.014s0,.009,0,.014l-.006.014c0,.005,0,.01,0,.014l-.006.014,0,.014-.007.014a.064.064,0,0,0,0,.015l-.007.014,0,.014-.008.013v.015a.042.042,0,0,1-.008.012v.016s-.005.007-.008.014l0,.015-.007.013,0,.014s0,.009-.006.013a.08.08,0,0,0,0,.015l-.006.014,0,.014-.007.014v.014l-.008.014,0,.015-.007.013,0,.014a.03.03,0,0,1-.007.013c0,.006,0,.012,0,.016l-.007.013v.014l-.007.013s0,.011,0,.016-.005.008-.007.014a.039.039,0,0,1,0,.014l-.005.014,0,.014-.007.013,0,.015c0,.005,0,.009-.007.014v.015s-.006.008-.008.013l0,.014c0,.006-.005.009-.005.014a.023.023,0,0,0,0,.015l-.007.012s0,.01,0,.016l-.005.013a.051.051,0,0,0,0,.015s-.006.008-.006.013l0,.015-.007.012a.119.119,0,0,0,0,.016l-.007.014,0,.014-.007.013,0,.015-.008.014v.014l-.006.014,0,.014-.008.013v.016l-.008.013v.014l-.007.014,0,.015-.007.013v.015l-.008.013,0,.015-.006.013,0,.015-.008.014v.014l-.007.014,0,.014-.007.014,0,.015-.008.013v.014l-.008.013v.016l-.008.013v.015c0,.005-.006.009-.007.014v.014s-.007.008-.007.012l0,.016-.006.013a.036.036,0,0,0,0,.015l-.008.014,0,.014-.007.013,0,.016-.007.013,0,.015-.007.013s0,.01,0,.014l-.006.013,0,.015a.021.021,0,0,1-.007.013v.016s-.005.008-.008.013v.015l-.008.014,0,.014-.006.013,0,.015-.008.013v.015l-.008.014v.014c0,.005-.006.009-.006.014l0,.014-.007.013,0,.015-.007.014,0,.014-.007.014,0,.015-.007.013c-.426,1.337,2.782,3.552,7.165,4.946"/><path class="b" d="M1658.363,4573.173l-10.375-7.195a8.844,8.844,0,0,0-4.212-1.341l-8.855-.088-1.27-.012-2.5-.025c-1.272-.012-1.457.57-.413,1.295l1.418.984-3.836,5.78-.284-.189a.532.532,0,0,0-.67.066l-2.151,2.135a.538.538,0,0,0-.156.431.532.532,0,0,0,.235.391l2.475,1.643a.533.533,0,0,0,.789-.244l1.133-2.813a.534.534,0,0,0-.2-.643l-.286-.188,3.826-5.762,8.082,5.6a8.874,8.874,0,0,0,4.211,1.341l12.625.123c1.272.014,1.458-.571.413-1.294"/><path class="c" d="M1639.309,4588.744a1.958,1.958,0,0,0,1.992-.562,2.527,2.527,0,0,1-.463.662c-1.23,1.218-3.481.937-5.027-.627s-1.8-3.816-.571-5.033,3.481-.937,5.027.627a4.658,4.658,0,0,1,1.227,2.167,1.849,1.849,0,0,0-1.072-.834,1.958,1.958,0,0,0-2.352,1.154,1.842,1.842,0,0,0,1.239,2.446"/></g></g></svg>