<svg xmlns="http://www.w3.org/2000/svg" xmlns:xlink="http://www.w3.org/1999/xlink" width="317.543" height="457.155" viewBox="0 0 317.543 457.155"><defs><style>.a{fill:none;}.b{clip-path:url(#a);}.c{fill:#f6c116;}</style><clipPath id="a"><rect class="a" width="317.543" height="457.155" transform="translate(320.669 1845.123) rotate(-180)"/></clipPath></defs><g transform="translate(-3.126 -1387.967)"><g class="b"><path class="c" d="M243.186,1512.75v73.984l-64.072,36.992-64.072-36.992V1512.75l64.072-36.992Z"/><path class="c" d="M172.611,1410.291v44.579L134,1477.16,95.4,1454.87v-44.579L134,1388Z"/><path class="c" d="M150.456,1624.29v89.857l-77.818,44.928L-5.18,1714.146V1624.29l77.818-44.928Z"/><path class="c" d="M234.361,1752.725v56.616L185.33,1837.65,136.3,1809.341v-56.616l49.031-28.308Z"/><path class="c" d="M65.356,1782.139V1824.1l-36.338,20.98L-7.319,1824.1v-41.959l36.338-20.98Z"/><path class="c" d="M320.354,1619.338v57.7l-49.971,28.851-49.971-28.851v-57.7l49.971-28.851Z"/><path class="c" d="M99.127,1478.593v61.077l-52.894,30.539L-6.662,1539.67v-61.077l52.894-30.539Z"/></g></g></svg>