<svg xmlns="http://www.w3.org/2000/svg" width="244.91" height="101.047" viewBox="0 0 244.91 101.047"><defs><style>.a{fill:#f6c116;}.b,.c{fill:#4a164b;}.c{font-size:42.316px;font-family:ArialRoundedMTBold, Arial Rounded MT;}.d{fill:#fff;}</style></defs><g transform="translate(-50.736 -37.675)"><path class="a" d="M65.415,80.246H58.4v10.7a5,5,0,0,1-1.084,3.483,3.816,3.816,0,0,1-5.52.013A4.987,4.987,0,0,1,50.736,91V61.852A4.765,4.765,0,0,1,51.9,58.241a5.278,5.278,0,0,1,3.689-1.084h9.829a25.763,25.763,0,0,1,6.707.671,9.987,9.987,0,0,1,4.011,2.141A9.673,9.673,0,0,1,78.7,63.632a12.911,12.911,0,0,1,.876,4.876q0,5.779-3.56,8.758T65.415,80.246ZM63.557,62.91H58.4V74.467h5.159a15.431,15.431,0,0,0,4.528-.567,5.275,5.275,0,0,0,2.773-1.858,5.544,5.544,0,0,0,.955-3.379,5.732,5.732,0,0,0-1.471-4.076Q68.69,62.91,63.557,62.91Z"/><path class="a" d="M92.476,85.457v5.881A4.539,4.539,0,0,1,91.47,94.55a3.356,3.356,0,0,1-2.554,1.071,3.224,3.224,0,0,1-2.5-1.084,4.62,4.62,0,0,1-.981-3.2v-19.6q0-4.748,3.431-4.747A2.864,2.864,0,0,1,91.392,68.1a6.124,6.124,0,0,1,.852,3.276A12.322,12.322,0,0,1,94.836,68.1a5.36,5.36,0,0,1,3.547-1.109,9.088,9.088,0,0,1,4.309,1.109,3.313,3.313,0,0,1,2.089,2.941,2.8,2.8,0,0,1-.89,2.128,2.761,2.761,0,0,1-1.922.839,8.82,8.82,0,0,1-1.87-.478,8.734,8.734,0,0,0-2.618-.477,3.827,3.827,0,0,0-2.528.813,5.221,5.221,0,0,0-1.523,2.412,16.869,16.869,0,0,0-.748,3.805Q92.475,82.283,92.476,85.457Z"/><path class="b" d="M118.163,81.809v44.476a3.828,3.828,0,0,1-1.007,2.877,3.522,3.522,0,0,1-2.554.974,3.349,3.349,0,0,1-2.515-1,3.929,3.929,0,0,1-.967-2.853V82a3.8,3.8,0,0,1,.967-2.83,3.436,3.436,0,0,1,2.515-.951,3.568,3.568,0,0,1,2.554.951A3.463,3.463,0,0,1,118.163,81.809Z"/><path class="a" d="M131.835,70.882v.851a12.334,12.334,0,0,1,4.063-3.6,10.824,10.824,0,0,1,5.069-1.148,10.118,10.118,0,0,1,4.979,1.212,7.706,7.706,0,0,1,3.276,3.432,8.129,8.129,0,0,1,.9,2.786,28.942,28.942,0,0,1,.207,3.817v13.1a4.663,4.663,0,0,1-.968,3.2,3.476,3.476,0,0,1-5.069-.026,4.636,4.636,0,0,1-.98-3.173V79.6a11.725,11.725,0,0,0-.968-5.327q-.966-1.845-3.856-1.845a5.709,5.709,0,0,0-3.431,1.122,6.445,6.445,0,0,0-2.27,3.083,22.021,22.021,0,0,0-.516,5.882v8.822a4.575,4.575,0,0,1-.994,3.212,3.345,3.345,0,0,1-2.566,1.071,3.19,3.19,0,0,1-2.5-1.11,4.636,4.636,0,0,1-.98-3.173V70.985a4.431,4.431,0,0,1,.877-3.006,3.036,3.036,0,0,1,2.4-.993,3.247,3.247,0,0,1,1.677.439,3.153,3.153,0,0,1,1.2,1.315A4.652,4.652,0,0,1,131.835,70.882Z"/><path class="a" d="M182.6,86.9a6.078,6.078,0,0,1-.787,2.811,9.676,9.676,0,0,1-2.4,2.851,12.4,12.4,0,0,1-4.064,2.18,17.239,17.239,0,0,1-5.52.825q-6.526,0-10.19-3.805t-3.663-10.2a16.8,16.8,0,0,1,1.677-7.661,12.031,12.031,0,0,1,4.85-5.147,16.487,16.487,0,0,1,12.6-1.019,13.161,13.161,0,0,1,3.87,2.064,9.9,9.9,0,0,1,2.424,2.7,5.338,5.338,0,0,1,.839,2.67,2.818,2.818,0,0,1-.942,2.141,3.228,3.228,0,0,1-2.283.877,2.293,2.293,0,0,1-1.457-.452,7.1,7.1,0,0,1-1.3-1.457,10.679,10.679,0,0,0-2.7-2.941,6.625,6.625,0,0,0-8.6,1.458,10.546,10.546,0,0,0-1.908,6.668,12.876,12.876,0,0,0,.49,3.651,8.278,8.278,0,0,0,1.418,2.837,6.085,6.085,0,0,0,2.244,1.781,6.829,6.829,0,0,0,2.89.606,6.5,6.5,0,0,0,3.624-.981,8.566,8.566,0,0,0,2.671-2.992A6.878,6.878,0,0,1,177.78,84.5a2.645,2.645,0,0,1,1.831-.67,2.713,2.713,0,0,1,2.141.98A3.14,3.14,0,0,1,182.6,86.9Z"/><path class="a" d="M208.4,83.032H194.626a9.331,9.331,0,0,0,.967,4.23,6.47,6.47,0,0,0,5.946,3.689,8.424,8.424,0,0,0,2.308-.3,7.51,7.51,0,0,0,2.026-.928,15.478,15.478,0,0,0,1.8-1.355q.827-.723,2.141-1.961a2.31,2.31,0,0,1,1.548-.464,2.556,2.556,0,0,1,1.755.593,2.126,2.126,0,0,1,.671,1.677,4.584,4.584,0,0,1-.748,2.231,8.865,8.865,0,0,1-2.258,2.451,12.838,12.838,0,0,1-3.793,1.948,16.326,16.326,0,0,1-5.249.774q-6.784,0-10.551-3.87t-3.766-10.5a17.486,17.486,0,0,1,.929-5.791,12.748,12.748,0,0,1,2.709-4.579,11.737,11.737,0,0,1,4.385-2.929,15.747,15.747,0,0,1,5.778-1.019,13.7,13.7,0,0,1,7.081,1.742,11.45,11.45,0,0,1,4.425,4.5,11.843,11.843,0,0,1,1.47,5.624q0,2.658-1.522,3.444A9.48,9.48,0,0,1,208.4,83.032Zm-13.774-4H207.4a8.567,8.567,0,0,0-1.948-5.4A5.831,5.831,0,0,0,201,71.836a5.634,5.634,0,0,0-4.32,1.818A9.042,9.042,0,0,0,194.626,79.033Z"/><path class="a" d="M220.526,67.605h.774V63.374q0-1.7.09-2.67a3.95,3.95,0,0,1,.5-1.664,3.183,3.183,0,0,1,1.187-1.173,3.366,3.366,0,0,1,1.728-.452,3.484,3.484,0,0,1,2.426,1.006,2.978,2.978,0,0,1,.915,1.639,14.857,14.857,0,0,1,.194,2.747v4.8h2.58a3.307,3.307,0,0,1,2.283.709,2.343,2.343,0,0,1,.787,1.819,2.037,2.037,0,0,1-1.122,1.987,7.291,7.291,0,0,1-3.213.567h-1.315v12.95a20.917,20.917,0,0,0,.116,2.542,2.594,2.594,0,0,0,.619,1.444,2.117,2.117,0,0,0,1.638.554,8.687,8.687,0,0,0,1.677-.219,8.721,8.721,0,0,1,1.651-.219,2.121,2.121,0,0,1,1.535.684,2.3,2.3,0,0,1,.684,1.69,2.828,2.828,0,0,1-1.858,2.605,12.55,12.55,0,0,1-5.34.9,9.225,9.225,0,0,1-5-1.11,5.141,5.141,0,0,1-2.23-3.069,20.76,20.76,0,0,1-.529-5.237V72.687h-.929a3.349,3.349,0,0,1-2.322-.722,2.357,2.357,0,0,1-.8-1.832,2.28,2.28,0,0,1,.838-1.819A3.688,3.688,0,0,1,220.526,67.605Z"/><path class="a" d="M265.206,81.3a16.636,16.636,0,0,1-.98,5.805,12.82,12.82,0,0,1-2.838,4.566,12.529,12.529,0,0,1-4.437,2.928,15.692,15.692,0,0,1-5.8,1.019,15.239,15.239,0,0,1-5.753-1.032,12.7,12.7,0,0,1-7.262-7.494,17.9,17.9,0,0,1,.014-11.648,12.728,12.728,0,0,1,2.811-4.54,12.409,12.409,0,0,1,4.437-2.9,16.793,16.793,0,0,1,11.557.013,12.485,12.485,0,0,1,7.288,7.481A16.706,16.706,0,0,1,265.206,81.3Zm-7.068,0a10.569,10.569,0,0,0-1.9-6.707,6.161,6.161,0,0,0-5.1-2.4,6.311,6.311,0,0,0-3.638,1.071,6.775,6.775,0,0,0-2.424,3.16,14.346,14.346,0,0,0-.013,9.7,6.911,6.911,0,0,0,2.4,3.161,6.23,6.23,0,0,0,3.676,1.1,6.147,6.147,0,0,0,5.1-2.412A10.534,10.534,0,0,0,258.138,81.3Z"/><path class="a" d="M277.15,70.882v.851a12.335,12.335,0,0,1,4.063-3.6,10.828,10.828,0,0,1,5.07-1.148,10.117,10.117,0,0,1,4.978,1.212,7.706,7.706,0,0,1,3.276,3.432,8.15,8.15,0,0,1,.9,2.786,28.966,28.966,0,0,1,.206,3.817v13.1a4.663,4.663,0,0,1-.967,3.2,3.476,3.476,0,0,1-5.069-.026,4.641,4.641,0,0,1-.98-3.173V79.6a11.727,11.727,0,0,0-.967-5.327q-.967-1.845-3.858-1.845a5.708,5.708,0,0,0-3.43,1.122,6.445,6.445,0,0,0-2.27,3.083,22.02,22.02,0,0,0-.516,5.882v8.822a4.575,4.575,0,0,1-.993,3.212,3.347,3.347,0,0,1-2.567,1.071,3.188,3.188,0,0,1-2.5-1.11,4.636,4.636,0,0,1-.981-3.173V70.985a4.426,4.426,0,0,1,.878-3.006,3.033,3.033,0,0,1,2.4-.993,3.244,3.244,0,0,1,1.677.439,3.14,3.14,0,0,1,1.2,1.315A4.653,4.653,0,0,1,277.15,70.882Z"/><text class="c" transform="translate(82.834 129.722)"><tspan x="0" y="0">h ve</tspan></text><path class="b" d="M109.627,62.029a14.133,14.133,0,0,1-2.358-.636,12.781,12.781,0,0,1-1.226-.521,9.39,9.39,0,0,0,.16,3.258c.112.052.223.1.337.153A14.47,14.47,0,0,0,110.2,65.3a16.5,16.5,0,0,0,5.467-.138,16.735,16.735,0,0,0,4.115-1.355l.069-.034a10.352,10.352,0,0,0-.823-2.923A16.432,16.432,0,0,1,115.6,61.94a16.006,16.006,0,0,1-5.972.089"/><path class="b" d="M112.26,68.034a14.414,14.414,0,0,1-4.97-1.052c-.1-.172-.187-.351-.275-.533a8.562,8.562,0,0,0,2.821,3.543,8.26,8.26,0,0,0,1.6.985c.3.147.6.284.917.406,3.218,1.242,6.571.783,8.626-.932a9.393,9.393,0,0,1-3.491.061,6.422,6.422,0,0,0,2.293-3.993,16.539,16.539,0,0,1-7.523,1.515"/><path class="a" d="M110.529,59.633q-.686-.058-1.349-.176a14.543,14.543,0,0,1-2.551-.692,7.6,7.6,0,0,0-.585,2.107,12.655,12.655,0,0,0,1.225.521,14.037,14.037,0,0,0,2.358.636,16.006,16.006,0,0,0,5.972-.089,16.432,16.432,0,0,0,3.427-1.089c-.022-.049-.042-.1-.064-.147a10.549,10.549,0,0,0-1.241-2.039,17.045,17.045,0,0,1-2.458.7,16.6,16.6,0,0,1-4.734.272"/><path class="a" d="M115.665,65.163a16.5,16.5,0,0,1-5.467.138,14.47,14.47,0,0,1-3.658-1.018c-.114-.049-.225-.1-.337-.153a10.571,10.571,0,0,0,.727,2.146c.027.059.057.115.085.174.088.181.179.359.275.532a14.438,14.438,0,0,0,4.97,1.053,16.574,16.574,0,0,0,3.718-.29,16.361,16.361,0,0,0,3.805-1.226,8.964,8.964,0,0,0,.066-2.745l-.069.034a16.735,16.735,0,0,1-4.115,1.355"/><path class="d" d="M121.625,46.094h0"/><path class="b" d="M118.14,46.291a7.611,7.611,0,0,1-1.949-.907,2.392,2.392,0,0,1-.62-.581,3.381,3.381,0,0,0-1.918,1.845,3.955,3.955,0,0,0,.363,3.51,4.258,4.258,0,0,0-.562-.022c-.5-1.727-1.018-3.375-1.512-4.8-1.071-3.046-1.956-4.915-2.705-5.717a6.132,6.132,0,0,0-10.606,3.889,6.1,6.1,0,0,0,.376,10.962c1.22.546,3.981.7,6.8.7,1.638,0,3.3-.057,4.689-.123a4.094,4.094,0,0,0,.208.4,5.268,5.268,0,0,0-1.3.409,5.676,5.676,0,0,0-2.781,2.911,14.455,14.455,0,0,0,2.551.691q.663.118,1.349.177a16.568,16.568,0,0,0,4.734-.273,16.916,16.916,0,0,0,2.458-.695,9.721,9.721,0,0,0-1.23-1.316,3.148,3.148,0,0,0,1.162-1.025,3.632,3.632,0,0,0-.2-4.116,4.977,4.977,0,0,0,3.761-1.091,4.028,4.028,0,0,1-2.3-.375,4.32,4.32,0,0,1-.63-.369l.1.05a3.785,3.785,0,0,0,3.039.17,1.172,1.172,0,0,0,.6-.592,3.539,3.539,0,0,0-.944-3.438,2.4,2.4,0,0,1-.792.116,7.536,7.536,0,0,1-2.142-.388M99.633,53.068a4.588,4.588,0,0,1,3.762-8.369c.447.2,1.588.959,4.212,3.83,1.27,1.4,2.713,3.117,4.146,4.917-6.1.35-10.815.205-12.12-.378m9.108-5.57c-2.177-2.383-3.722-3.758-4.726-4.2a6.1,6.1,0,0,0-3.766-.386,4.58,4.58,0,0,1,4.5-3.7l.172,0a4.585,4.585,0,0,1,3.2,1.453c.333.357,1.085,1.5,2.376,5.174.59,1.706,1.215,3.733,1.8,5.839-1.234-1.525-2.458-2.965-3.557-4.179"/><path class="b" d="M118.269,45.883c1.494.476,2.823.492,2.968.036v0l0,0V45.9l0,0V45.9l0,0v-.006l0,0v-.005l0-.005v0l0-.005v-.005l0,0v-.005l0-.005v0l0,0v-.005l0,0v-.005l0,0v-.005l0,0V45.8l0,0v0l0-.005V45.78l0,0V45.77l0,0v0l0-.005v-.005l0,0v-.005l0-.005v-.005l0,0v-.006l0,0v0l0,0V45.7l0,0v-.005l0-.005v-.005l0,0v-.006l0,0v0l0-.005v0l0,0v-.006l0,0v0l0,0v-.005l0,0v-.005l0,0v0l0-.005V45.6l0-.005v0l0,0v-.005l0,0v-.005l0,0v0l0-.005V45.55l0-.005v0l0,0v-.005l0,0v-.005l0,0v-.006l0,0V45.5l0,0v-.005l0,0v-.006l0,0v-.005l0,0v-.005l0-.005v-.005l0,0v-.005l0-.005v0l0,0v-.006l0,0v-.005l0-.005v-.005l0,0V45.4l0-.005v0l0-.005v-.005l0,0v-.005l0,0v-.006l0,0v-.005l0,0v-.005l0-.005v0l0-.005V45.32l0,0V45.31l0,0V45.3l0,0v-.005l0,0v0l0-.005v-.014l0-.005v-.005l0,0v-.006l0,0v0l0-.005v-.005l0,0v-.005l0-.005v0l0,0V45.2l0,0v-.005l0-.005v-.005l0,0v-.005l0-.005v0l0,0v-.006l0,0v-.005l0-.005v-.005l0,0v-.005l0-.005v0l0,0V45.1l0,0V45.09l0,0v0l0-.005v-.005l0,0v-.005l0,0v-.005l0,0v-.005l0,0v-.006l0,0v-.005l0,0v-.005l0-.005v0l0-.005v-.005l0,0v-.005l0-.005v-.005l0,0v-.005l0,0v0l0-.005v-.005l0,0v-.005l0-.005v-.005l0,0v-.005l0-.005v0l0,0V44.9l0,0v-.005l0-.005v0l0-.005v0l0,0v-.009l0-.006,0,0v-.005l0-.005v0l0,0v-.005l0,0v-.005l0,0v0l0-.005v-.005l0-.005v0l0,0v-.005l0,0v-.005l0,0v0l0-.005v-.005l0,0v-.005l0-.005v0l0,0v-.006l0,0v-.005l0-.005V44.7l0,0v-.005l0-.005v0l0-.005v0l0,0v-.005l0,0v0l0-.005V44.64l0-.005v0l0-.005v0l0,0v-.005l0-.005v0l0,0v-.005l0,0v-.005l0,0v0l0-.005v-.005l0,0v0l0-.005v-.005l0,0v-.005l0,0v0l0-.005v-.005l0-.005v0l0-.005V44.5l0,0v-.006l0,0v0l0-.005v0l0,0v-.005l0-.005v0l0,0v-.005l0-.005v0l0-.005v-.005l0,0V44.41l0-.005v0l0,0v-.005l0,0v-.005l0,0v0l0-.005v-.005l0-.005v0l0,0v-.005l0,0v-.005l0,0v-.006l0,0v-.005l0-.005v0l0-.005v-.005l0,0v-.005l0,0v0l0-.005v-.005l0,0v-.005l0,0v0l0-.005v-.005l0,0v-.005l0-.005v-.005l0,0v-.005l0-.005v0l0,0v-.006l0,0V44.18l0-.005V44.17l0,0v0l-1.964-.02a3.267,3.267,0,0,1-1.591-.507l-1.831-1.269h0v.005l0,0v.006l0,0v0l0,.005V42.4l0,0v.006l0,0v0l0,.005v.005l0,0v.005l0,.005v.005l0,0v.005l0,.005v0l0,.005v.005l0,0v.005l0,.005V42.5l0,0v.005l0,.005v0l0,0v.01l0,.005,0,0v0l0,.005v.005l0,0v.005l0,.005v0l0,0v.005l0,.005v0l0,.005V42.6l0,0v.005l0,0v0l0,.005v.005l0,0v.005l0,.005v.005l0,0v.006l0,0v0l0,.005,0,.005,0,0v.005l0,.005V42.7l0,0,0,.005,0,.005v0l0,.005v0l0,0v.005l0,.005v0l0,0v.005l0,0v.005l0,.005v.005l0,0v.005l0,.005v0l0,.005V42.8l0,0v.005l0,0v0l0,.005v.005l0,.005v0l0,0v.005l0,0v.005l0,0v0l0,.005v.005l0,0v.005l0,.005v0l0,.005v.005l0,0v.005l0,.005v.005l0,0v0l0,.005v0l0,0v.006l0,0v.005l0,0v.006l0,0v.005l0,.005v0l0,.005v0l0,0v.005l0,0v.006l0,0v.005l0,0v.005l0,0v0l0,.005v.005l0,0v.006l0,0v.005l0,0v.005l0,0v0l0,.005v.005l0,.005v0l0,0v.005l0,0v.005l0,0v0l0,.005v.005l0,0v.005l0,.005v0l0,0v.006l0,0v0l0,.005v.005l0,0v.005l0,.005v0l0,0v.006l0,0v.005l0,0v0l0,.005v.005l0,.005v0l0,.005v.005l0,0v.005l0,0v0l0,.005v.005l0,.005v0l0,0v.005l0,0v.005l0,0v0l0,.005v.005l0,0v0l0,.005v0l0,.005v.005l0,0V43.4l0,.005v.005l0,0v.005l0,.005v0l0,0v.006l0,0v.005l0,.005v.005l0,0,0,.005,0,.005v0l0,.005v0l0,0v.005l0,.005v0l0,0v.005l0,0v.005l0,.005v.005l0,0v.005l0,.005v0l0,0v.005l0,0v.005l0,.005v.005l0,0v.005l0,0V43.6l0,0,0,.005v.01l0,0v0l0,.005v.005l0,0v.006l0,0v0l0,.005v.005l0,0v.005l0,.005v.005l0,0v.005l0,.005v0l0,0v.006l0,0v.005l0,.005v.005l0,0v.005l0,.005v0l0,0v.005l0,0v.005l0,.005v0l0,0v.005l0,0V43.8l0,0v0l0,.005v.005l0,.005v0l0,0v.005l0,0v.005l0,0v0l0,0v.006l0,0v.005l0,.005v.005l0,0V43.9l0,0v0l0,.005v.005l0,0v.005l0,.005v0l0,0v.006l0,0v0l0,0v.005l0,0v.005l0,.005v0l0,.005v.005l0,0V44l0,0v.006l0,0v.005l0,.005v0l0,0v.005l0,0v.005l0,0v0l0,.005v.005l0,.005v0l0,0v.005l0,0V44.1l0,0v0l0,.005v.005l0,0v.005l0,0v0l0,0v.006l0,0v.005l0,.005v.005l0,0v.005l0,.005v0l0,.005v.005l0,0c-.146.456.948,1.211,2.442,1.686"/><path class="b" d="M124.28,43.465l-3.537-2.453a3.032,3.032,0,0,0-1.436-.457l-3.019-.03-.433,0L115,40.513c-.433-.005-.5.194-.141.441l.484.336-1.308,1.97-.1-.064a.18.18,0,0,0-.228.022l-.734.728a.181.181,0,0,0,.027.28l.844.56a.181.181,0,0,0,.155.022.183.183,0,0,0,.114-.1l.386-.959a.181.181,0,0,0-.068-.219l-.1-.064,1.3-1.965,2.755,1.911a3.017,3.017,0,0,0,1.436.457l4.3.042c.434.005.5-.194.141-.441"/><path class="a" d="M117.784,48.773a.669.669,0,0,0,.679-.191.853.853,0,0,1-.158.226,1.4,1.4,0,1,1-.194-1.716,1.587,1.587,0,0,1,.418.738.634.634,0,0,0-.365-.284.667.667,0,0,0-.8.394.626.626,0,0,0,.422.833"/></g></svg>