<?xml version="1.0" encoding="utf-8"?>
<!-- Generator: Adobe Illustrator 16.0.0, SVG Export Plug-In . SVG Version: 6.00 Build 0)  -->
<!DOCTYPE svg PUBLIC "-//W3C//DTD SVG 1.1//EN" "http://www.w3.org/Graphics/SVG/1.1/DTD/svg11.dtd">
<svg version="1.1" id="Layer_1" xmlns="http://www.w3.org/2000/svg" xmlns:xlink="http://www.w3.org/1999/xlink" x="0px" y="0px"
	 width="458px" height="315px" viewBox="22.5 146.5 458 315" enable-background="new 22.5 146.5 458 315" xml:space="preserve">
<g id="recept">
	<path fill="#391233" d="M423.313,458H452c13.255,0,24-10.745,24-24V255.145l-168.432,87.119L423.313,458z"/>
	<path fill="#391233" d="M28,255.145V434c0,13.255,10.745,24,24,24h28.688l115.736-115.736L28,255.145z"/>
	<path fill="#391233" d="M255.672,369.104c-2.303,1.19-5.041,1.19-7.344,0L211.336,350L103.312,458h297.375l-108-108
		L255.672,369.104z"/>
	<path fill="#391233" d="M452,202H300v16h24c4.418,0.001,7.999,3.584,7.998,8.002c-0.001,1.976-0.732,3.881-2.054,5.35l-72.001,80
		c-2.957,3.283-8.015,3.547-11.298,0.59c-0.207-0.186-0.403-0.383-0.589-0.59l-72-80c-2.956-3.284-2.69-8.342,0.594-11.298
		c1.469-1.322,3.375-2.053,5.35-2.054h24v-16H52c-13.255,0-24,10.745-24,24v11.136l224,115.856l224-115.856V226
		C476,212.745,465.255,202,452,202z"/>
	<path fill="#391233" d="M252,294.04L306.04,234H292c-4.418,0-8-3.582-8-8v-72h-64v72c0,4.418-3.582,8-8,8h-14.04L252,294.04z"/>
</g>
</svg>
