<svg fill="#f6c116" height="512pt" viewBox="0 0 512 512" width="512pt" xmlns="http://www.w3.org/2000/svg"><path d="m448.800781 422.140625c7.992188-17.425781 4.828125-38.757813-9.503906-53.089844-8.914063-8.917969-20.765625-13.824219-33.371094-13.824219-10.441406 0-20.355469 3.375-28.523437 9.59375-6.746094-5.414062-12.394532-9.949218-16.507813-13.25l27.832031-129.308593c4.6875-21.777344 1.785157-44.746094-8.167968-64.675781l-.109375-.222657-74.550781-137.632812c-5.5625-12.007813-17.609376-19.730469-30.886719-19.730469-7.046875 0-13.601563 2.152344-19.039063 5.835938-5.441406-3.683594-11.992187-5.835938-19.042968-5.835938-13.277344 0-25.320313 7.722656-30.882813 19.730469l-74.433594 137.417969-.230469.441406c-9.953124 19.925781-12.855468 42.894531-8.167968 64.671875l27.832031 129.296875c-4.113281 3.292968-9.765625 7.816406-16.511719 13.214844-8.152344-6.1875-18.046875-9.546876-28.460937-9.546876-12.605469 0-24.457031 4.910157-33.371094 13.824219-14.285156 14.285157-17.472656 35.523438-9.578125 52.917969-23.527344 18.855469-46.660156 37.402344-63.125 50.632812v38.511719c11.589844-9.375 45.609375-36.664062 82.113281-65.914062l52.976563 52.980469c9.199218 9.199218 21.285156 13.796874 33.371094 13.796874 12.085937 0 24.171874-4.597656 33.371093-13.796874 13.988281-13.992188 17.332031-34.648438 10.050781-51.832032 0 0 43.414063-51.570312 44.089844-52.449218.671875.878906 44.101563 52.542968 44.101563 52.542968-7.226563 17.167969-3.871094 37.773438 10.09375 51.738282 9.199219 9.199218 21.285156 13.800781 33.371093 13.800781 12.085938 0 24.171876-4.601563 33.371094-13.800781l52.851563-52.851563c38.667969 31.0625 74.109375 59.695313 82.238281 66.324219v-38.558594c-16.101562-12.972656-39.304688-31.757812-63.199219-50.953125zm-268.183593 54.824219c-6.703126 6.703125-17.613282 6.703125-24.316407 0l-62.382812-62.386719c-6.703125-6.703125-6.703125-17.613281 0-24.316406 3.246093-3.246094 7.5625-5.035157 12.15625-5.035157s8.910156 1.789063 12.160156 5.035157l62.382813 62.382812c6.707031 6.707031 6.707031 17.617188 0 24.320313zm60.355468-333.488282c-3.992187-1.238281-8.234375-1.910156-12.628906-1.910156-23.503906 0-42.625 19.125-42.625 42.628906v58.679688h30v-58.679688c0-6.960937 5.664062-12.628906 12.625-12.628906 6.964844 0 12.628906 5.667969 12.628906 12.628906v165.484376c0 10.042968-3.5625 19.804687-10.027344 27.484374l-38.128906 45.25-36.582031-36.578124c7.84375-6.28125 14.910156-11.9375 20.800781-16.652344l7.242188-5.796875-31.730469-147.4375c-3.242187-15.0625-1.265625-30.941407 5.570313-44.746094l74.5625-137.660156.300781-.550781.25-.574219c.644531-1.46875 2.097656-2.417969 3.703125-2.417969 2.226562 0 4.039062 1.8125 4.039062 4.039062zm40.027344 233.695313c-6.46875-7.683594-10.027344-17.445313-10.027344-27.492187v-165.484376c0-6.960937 5.664063-12.625 12.625-12.625 6.964844 0 12.628906 5.664063 12.628906 12.625v58.679688h30v-58.679688c0-23.503906-19.121093-42.625-42.628906-42.625-4.394531 0-8.632812.667969-12.625 1.910157v-109.441407c0-2.226562 1.8125-4.039062 4.039063-4.039062 1.605469 0 3.058593.949219 3.703125 2.421875l.25.570313 74.863281 138.210937c6.832031 13.804687 8.8125 29.683594 5.570313 44.746094l-31.730469 147.421875 7.226562 5.800781c5.890625 4.722656 12.964844 10.402344 20.824219 16.710937l-36.597656 36.59375zm137.082031 37.40625-62.382812 62.386719c-6.707031 6.703125-17.613281 6.703125-24.316407 0-6.707031-6.707032-6.707031-17.613282 0-24.320313l62.382813-62.382812c3.25-3.246094 7.566406-5.035157 12.160156-5.035157s8.910157 1.789063 12.15625 5.035157c6.703125 6.703125 6.703125 17.613281 0 24.316406zm0 0"/></svg>