<?xml version="1.0" encoding="utf-8"?>
<!-- Generator: Adobe Illustrator 16.0.0, SVG Export Plug-In . SVG Version: 6.00 Build 0)  -->
<!DOCTYPE svg PUBLIC "-//W3C//DTD SVG 1.1//EN" "http://www.w3.org/Graphics/SVG/1.1/DTD/svg11.dtd">
<svg version="1.1" id="Layer_1" xmlns="http://www.w3.org/2000/svg" xmlns:xlink="http://www.w3.org/1999/xlink" x="0px" y="0px"
	 width="475px" height="383px" viewBox="17.5 64.5 475 383" enable-background="new 17.5 64.5 475 383" xml:space="preserve">
<path fill="#391233" d="M21,357.182h470V157.558H21V357.182z M222.7,199.069c0-3.866,3.134-7,7-7c1.229,0,2.436,0.323,3.5,0.938
	l85.506,49.367c3.348,1.933,4.495,6.214,2.562,9.563c-0.614,1.063-1.498,1.947-2.562,2.562L233.2,303.865
	c-3.348,1.933-7.629,0.785-9.563-2.563c-0.614-1.064-0.938-2.271-0.938-3.5V199.069z"/>
<path fill="#391233" d="M60.571,95.142c-6.697,0.009-12.118,5.446-12.109,12.143c0.009,6.697,5.446,12.118,12.143,12.109
	c6.69-0.009,12.109-5.436,12.109-12.126C72.703,100.569,67.27,95.144,60.571,95.142z"/>
<path fill="#391233" d="M122.286,95.142c-6.697,0.009-12.119,5.446-12.109,12.143c0.009,6.697,5.446,12.118,12.143,12.109
	c6.69-0.009,12.109-5.436,12.109-12.126C134.417,100.569,128.984,95.145,122.286,95.142z"/>
<path fill="#391233" d="M232.7,204.265v88.342l76.506-44.171L232.7,204.265z"/>
<path fill="#391233" d="M21,426.7c0.015,9.279,7.539,16.795,16.818,16.8h436.364c9.279-0.005,16.804-7.521,16.818-16.8v-59.519H21
	V426.7z M117.541,398.584h9.859v-3.434c0.003-2.762,2.245-4.998,5.006-4.994c2.756,0.004,4.99,2.237,4.994,4.994v3.437h326.052
	c2.762,0,5,2.238,5,5s-2.238,5-5,5H137.4v3.372c0,2.762-2.238,5-5,5c-2.761,0-5-2.238-5-5v-3.372h-9.855c-2.761,0-5-2.238-5-5
	s2.239-5,5-5L117.541,398.584z M77.541,398.584h5.911c2.761,0,5,2.238,5,5s-2.239,5-5,5h-5.911c-2.761,0-5-2.238-5-5
	S74.78,398.584,77.541,398.584z M47.541,398.584h5.911c2.761,0,5,2.238,5,5s-2.239,5-5,5h-5.911c-2.761,0-5-2.238-5-5
	S44.78,398.584,47.541,398.584z"/>
<path fill="#391233" d="M182.857,95.142c-6.697,0.009-12.118,5.446-12.109,12.143c0.009,6.697,5.446,12.118,12.143,12.109
	c6.69-0.009,12.109-5.436,12.109-12.126C194.988,100.569,189.556,95.145,182.857,95.142z"/>
<path fill="#391233" d="M474.182,68.5H37.818C28.539,68.505,21.015,76.021,21,85.3v62.26h470V85.3
	C490.985,76.021,483.461,68.505,474.182,68.5z M60.571,129.394c-12.22-0.009-22.118-9.923-22.109-22.143s9.923-22.118,22.143-22.109
	c12.213,0.009,22.109,9.913,22.109,22.126C82.696,119.487,72.79,129.385,60.571,129.394z M122.286,129.394
	c-12.22-0.009-22.119-9.923-22.109-22.143c0.009-12.22,9.923-22.118,22.143-22.109c12.213,0.009,22.109,9.913,22.109,22.126
	C144.41,119.487,134.505,129.385,122.286,129.394z M182.857,129.394c-12.22-0.009-22.118-9.923-22.109-22.143
	s9.923-22.118,22.143-22.109C195.104,85.151,205,95.055,205,107.268C204.981,119.487,195.076,129.385,182.857,129.394z
	 M469.714,111.126H273.143c-2.761,0-5-2.239-5-5s2.239-5,5-5h196.571c2.762,0,5,2.239,5,5S472.476,111.126,469.714,111.126z"/>
</svg>
