<svg xmlns="http://www.w3.org/2000/svg" width="421.05" height="97.238" viewBox="0 0 421.05 97.238"><defs><style>.a{fill:#f6c116;}.b,.d{fill:#4a164b;}.c{fill:#fff;}.d{font-size:34.178px;font-family:AvantGardeMdITC-Bold, AvantGardeMdITC;font-weight:700;letter-spacing:0.26em;}</style></defs><g transform="translate(-729.636 -4960.82)"><rect class="a" width="400.287" height="51.423" transform="translate(729.636 4984.355)"/><path class="a" d="M1066.475,4985.129v48.619l42.105,24.31,42.106-24.31v-48.619l-42.106-24.31Z"/><path class="b" d="M1102.877,5022.676a24.689,24.689,0,0,1-4.135-1.115,22.318,22.318,0,0,1-2.149-.913,16.438,16.438,0,0,0,.28,5.712c.195.091.391.183.59.269a25.377,25.377,0,0,0,6.415,1.786,28.945,28.945,0,0,0,9.588-.244,29.279,29.279,0,0,0,7.215-2.375c.042-.019.08-.04.121-.06a18.222,18.222,0,0,0-1.443-5.126,28.763,28.763,0,0,1-6.009,1.91,28.057,28.057,0,0,1-10.473.156"/><path class="b" d="M1107.493,5033.207a25.322,25.322,0,0,1-8.713-1.844c-.169-.3-.33-.617-.484-.935a15.025,15.025,0,0,0,4.948,6.212,14.518,14.518,0,0,0,2.809,1.727c.518.259,1.053.5,1.608.712,5.643,2.179,11.523,1.373,15.126-1.634a16.443,16.443,0,0,1-6.121.106,11.258,11.258,0,0,0,4.021-7,29.024,29.024,0,0,1-13.194,2.656"/><path class="a" d="M1104.458,5018.476q-1.2-.105-2.365-.31a25.384,25.384,0,0,1-4.474-1.213,13.37,13.37,0,0,0-1.026,3.695,22.318,22.318,0,0,0,2.149.913,24.6,24.6,0,0,0,4.135,1.115,28.057,28.057,0,0,0,10.473-.156,28.736,28.736,0,0,0,6.008-1.91c-.037-.086-.072-.171-.112-.256a18.508,18.508,0,0,0-2.175-3.576,29.728,29.728,0,0,1-4.311,1.219,29.187,29.187,0,0,1-8.3.479"/><path class="a" d="M1113.466,5028.171a28.918,28.918,0,0,1-9.588.244,25.365,25.365,0,0,1-6.415-1.786c-.2-.086-.4-.178-.59-.269a18.523,18.523,0,0,0,1.274,3.764c.048.1.1.2.149.3q.231.478.484.935a25.346,25.346,0,0,0,8.713,1.845,29.027,29.027,0,0,0,13.194-2.658,15.785,15.785,0,0,0,.115-4.814c-.041.02-.079.041-.121.06a29.32,29.32,0,0,1-7.215,2.375"/><path class="c" d="M1123.917,4994.733h0"/><path class="b" d="M1117.805,4995.078a13.346,13.346,0,0,1-3.418-1.589,4.222,4.222,0,0,1-1.087-1.019,5.925,5.925,0,0,0-3.364,3.235,6.939,6.939,0,0,0,.637,6.154,7.511,7.511,0,0,0-.985-.037c-.878-3.03-1.785-5.918-2.652-8.424-1.878-5.34-3.429-8.618-4.744-10.024a15.833,15.833,0,1,0-17.938,26.042c2.14.958,6.981,1.235,11.933,1.232,2.873,0,5.782-.1,8.222-.216a7.511,7.511,0,0,0,.366.7,9.32,9.32,0,0,0-2.278.716,9.965,9.965,0,0,0-4.878,5.106,25.3,25.3,0,0,0,4.474,1.212q1.163.205,2.365.311a29.187,29.187,0,0,0,8.3-.479,29.728,29.728,0,0,0,4.311-1.219,17.087,17.087,0,0,0-2.158-2.308,5.555,5.555,0,0,0,2.039-1.8,6.372,6.372,0,0,0-.354-7.218,8.725,8.725,0,0,0,6.594-1.914,7.041,7.041,0,0,1-4.033-.658,7.568,7.568,0,0,1-1.106-.646c.057.029.115.059.174.087a6.626,6.626,0,0,0,5.328.3,2.041,2.041,0,0,0,1.05-1.038c.734-1.842-.051-4.13-1.655-6.028a4.213,4.213,0,0,1-1.389.2,13.179,13.179,0,0,1-3.756-.681m-32.453,11.884a8.045,8.045,0,0,1,6.6-14.675c.783.347,2.784,1.681,7.384,6.717,2.227,2.461,4.759,5.466,7.271,8.621-10.688.614-18.964.36-21.253-.663m15.972-9.767c-3.817-4.179-6.527-6.589-8.288-7.367a10.687,10.687,0,0,0-6.6-.678,8.028,8.028,0,0,1,7.888-6.491c.1,0,.2,0,.3,0a8.036,8.036,0,0,1,5.609,2.548c.585.626,1.9,2.637,4.167,9.072,1.035,2.992,2.132,6.547,3.163,10.239-2.163-2.673-4.31-5.2-6.236-7.328"/><path class="b" d="M1118.032,4994.364c2.62.834,4.95.862,5.2.063l0-.009,0-.008,0-.01,0-.007,0-.008,0-.008v-.01l0-.007v-.01l0-.008,0-.008,0-.008,0-.009,0-.008v-.009l0-.008,0-.009,0-.007,0-.01,0-.007,0-.009,0-.008v-.009l0-.008v-.009l0-.008v-.009l0-.007,0-.009,0-.008,0-.009,0-.008,0-.009,0-.008v-.009l0-.008,0-.008,0-.008,0-.009,0-.008,0-.009,0-.008,0-.009,0-.007v-.01l.005-.008v-.008l0-.008v-.009l0-.008,0-.009,0-.008,0-.009,0-.008v-.008l0-.008,0-.01,0-.008,0-.009,0-.007v-.009l.005-.008v-.009l0-.008v-.009l0-.008v-.008l0-.009,0-.009,0-.007v-.009l0-.008,0-.009,0-.008v-.009l0-.008v-.008l0-.009v-.009l0-.007,0-.009,0-.008v-.009l0-.008v-.009l.005-.008v-.008l0-.009v-.008l0-.008v-.01l.005-.007v-.009l0-.008v-.009l0-.008v-.008l.005-.008v-.009l0-.008v-.009l0-.008v-.009l.005-.008v-.009l0-.008v-.008l0-.009v-.008l.005-.008v-.009l0-.008v-.009l.005-.008v-.009l0-.007v-.01l0-.008v-.008l0-.009v-.008l.005-.008v-.009l0-.008v-.009l.005-.007v-.01l0-.008v-.008l0-.009v-.008l0-.008,0-.009,0-.008v-.009l0-.008v-.009l.006-.008v-.009l0-.007v-.009l.005-.008v-.009l.005-.008v-.009l0-.008v-.009l0-.008,0-.008,0-.008,0-.009,0-.008,0-.009,0-.008v-.009l.005-.008v-.008l0-.008,0-.009,0-.008v-.01l.005-.007v-.009l0-.008,0-.009,0-.007v-.01l.005-.008v-.008l0-.008,0-.009,0-.008,0-.009,0-.008v-.009l0-.007v-.01l.005-.007v-.009l0-.008v-.009l0-.008v-.009l0-.008,0-.009,0-.008,0-.009,0-.007,0-.009,0-.009,0-.008,0-.008,0-.009,0-.008v-.009l.005-.008v-.009l0-.008v-.009l0-.007,0-.009,0-.008v-.009l0-.008,0-.009,0-.008,0-.008,0-.008,0-.01,0-.007v-.01l0-.007,0-.009,0-.008,0-.009,0-.008v-.009l0-.008,0-.008,0-.008v-.009l0-.008,0-.009,0-.008,0-.009,0-.008v-.009l0-.007,0-.009,0-.009,0-.008,0-.008v-.009l0-.008v-.009l0-.008,0-.009,0-.008,0-.008,0-.008,0-.009,0-.008,0-.009,0-.009,0-.008,0-.008,0-.009,0-.008v-.008l0-.008v-.01l.005-.007v-.009l0-.008v-.009l0-.008v-.009l0-.008,0-.008,0-.009v-.008l0-.008,0-.009,0-.008,0-.009,0-.008v-.009l0-.008,0-.009,0-.008v-.008l0-.008v-.009l0-.009v-.008l.005-.008v-.009l0-.008v-.009l0-.008,0-.008,0-.008v-.009l0-.008v-.009l0-.008,0-.009,0-.008V4992l0-.008v-.008l0-.008v-.009l.005-.008v-.009l0-.008v-.009l0-.007v-.01l0-.008v-.008l.005-.008v-.009l.005-.008v-.009l.005-.008v-.009l0-.008v-.008l0-.008,0-.009,0-.008v-.009l.005-.008v-.009l0-.008,0-.008,0-.008v-.01l.005-.008v-.008l0-.008,0-.009,0-.008v-.009l0-.009v-.008l.005-.007v-.01l0-.008v-.008l.005-.008v-.009l.005-.008v-.009l0-.008v-.008l0-.009v-.009l.005-.008v-.008l.005-.009v-.008l0-.008v-.009l0-.008,0-.009,0-.008v-.009l0-.008,0-.008,0-.008v-.009l0-.008v-.009l0-.008,0-.009,0-.008v-.009l0-.007,0-.009,0-.008v-.009l0-.008v-.009l0-.008v-.007l-3.443-.034a5.758,5.758,0,0,1-2.791-.889l-3.211-2.227v0l0,.01,0,.007,0,.01,0,.008v.008l0,.008,0,.009,0,.008v.009l0,.008,0,.009,0,.008,0,.009,0,.008,0,.008,0,.008v.01l-.005.007v.009l0,.008v.009l0,.008v.009l-.005.008v.008l0,.008v.009l0,.008v.009l0,.008,0,.009,0,.007,0,.01,0,.008,0,.008,0,.008,0,.009,0,.008v.009l0,.008v.009l-.005.008v.008l0,.009v.008l0,.009,0,.008,0,.008,0,.009,0,.008,0,.009,0,.007,0,.01,0,.008,0,.008,0,.009v.008l0,.008v.01l0,.007,0,.009,0,.008v.009l0,.007,0,.01,0,.007,0,.009,0,.009v.008l0,.008,0,.009,0,.008,0,.009,0,.008v.008l-.005.008v.009l0,.008,0,.009,0,.008v.009l0,.008,0,.008,0,.009v.009l0,.008v.008l0,.008,0,.009,0,.008,0,.009,0,.008v.009l0,.008,0,.009,0,.008v.009l0,.007,0,.009,0,.008v.009l0,.008v.009l0,.008,0,.009,0,.007,0,.009,0,.008v.009l0,.008,0,.01,0,.007v.009l0,.007v.01l-.005.008v.008l-.005.009v.008l0,.008v.009l0,.008v.009l-.005.008v.008l0,.008v.009l0,.009v.008l-.005.009v.008l0,.008v.009l-.005.007v.01l0,.007v.01l0,.008v.007l-.005.009v.009l0,.008v.009l0,.008v.008l0,.008v.01l-.005.007v.009l0,.008v.009l-.005.008v.009l-.005.008v.009l-.005.008v.009l-.005.007v.009l0,.008v.009l0,.008,0,.009,0,.008,0,.008,0,.008,0,.009,0,.008v.009l-.005.008v.009l-.005.008v.009l0,.008v.008l-.005.009v.009l0,.007v.009l0,.008v.009l-.005.008v.009l0,.008v.008l-.005.009v.008l0,.008v.009l-.005.009v.008l0,.008,0,.009,0,.008v.008l0,.009v.008l0,.008v.01l-.005.007v.009l0,.008,0,.009,0,.007v.01l0,.008,0,.008,0,.008v.009l-.005.008v.009l0,.008v.009l0,.008V4990l-.005.008v.008l0,.008v.009l0,.008v.009l-.005.008v.009l0,.007,0,.01,0,.008,0,.008,0,.008,0,.009,0,.008,0,.01,0,.008,0,.007,0,.008v.01l0,.008,0,.008,0,.008,0,.009,0,.008,0,.009,0,.008,0,.009,0,.008v.009l0,.008v.008l0,.009v.008l-.005.008v.009l-.005.008v.009l0,.008v.009l0,.008,0,.009,0,.008,0,.008,0,.008,0,.009,0,.008,0,.009,0,.008v.008l0,.008,0,.01,0,.008v.008l-.005.008v.009l-.005.008v.009l0,.008v.009l-.005.008v.008l0,.008,0,.009,0,.008,0,.009,0,.008v.009l0,.008v.009l-.005.007v.009l-.005.008v.009l0,.008v.009l-.005.008v.009l0,.008,0,.009,0,.008,0,.008,0,.008,0,.009,0,.008v.009l0,.008v.008l0,.009,0,.009,0,.007,0,.01,0,.007,0,.009,0,.008v.009l0,.007,0,.01,0,.008v.009l0,.007v.01l-.005.007v.009l0,.008,0,.009,0,.008v.009l-.005.008v.008l-.005.009v.008l0,.008v.01l-.005.007v.009l0,.008V4991l0,.008v.009l0,.008v.008l-.005.009v.009l-.005.007v.009l-.005.008v.009l0,.008v.009l0,.008v.009l0,.007,0,.01,0,.007v.009l0,.008v.009l-.005.008v.009l0,.008v.009l-.005.008v.008l0,.008v.009l-.005.008v.009l-.005.008v.009l-.005.008v.009l0,.007v.009l-.005.008v.009l-.005.009v.008l0,.008,0,.009,0,.008v.008l-.005.009v.008l0,.008v.009l-.005.008c-.254.8,1.663,2.123,4.284,2.957"/><path class="b" d="M1128.572,4990.124l-6.2-4.3a5.308,5.308,0,0,0-2.519-.8l-5.293-.053-.759-.007-1.495-.015c-.76-.007-.871.341-.246.774l.847.589-2.293,3.455-.17-.113a.318.318,0,0,0-.4.039l-1.286,1.277a.318.318,0,0,0,.047.491l1.48.982a.317.317,0,0,0,.471-.146l.677-1.681a.318.318,0,0,0-.119-.385l-.17-.112,2.287-3.445,4.831,3.351a5.291,5.291,0,0,0,2.517.8l7.547.074c.761.008.872-.341.248-.773"/><path class="a" d="M1117.181,4999.432a1.172,1.172,0,0,0,1.191-.336,1.5,1.5,0,0,1-.277.4,2.448,2.448,0,1,1-.341-3.009,2.8,2.8,0,0,1,.734,1.295,1.109,1.109,0,0,0-.641-.5,1.17,1.17,0,0,0-1.406.69,1.1,1.1,0,0,0,.74,1.462"/><text class="d" transform="translate(760.334 5022.44)"><tspan x="0" y="0">PARTICIPATE</tspan></text></g></svg>