<?xml version="1.0" encoding="utf-8"?>
<!-- Generator: Adobe Illustrator 16.0.0, SVG Export Plug-In . SVG Version: 6.00 Build 0)  -->
<!DOCTYPE svg PUBLIC "-//W3C//DTD SVG 1.1//EN" "http://www.w3.org/Graphics/SVG/1.1/DTD/svg11.dtd">
<svg version="1.1" id="bold" xmlns="http://www.w3.org/2000/svg" xmlns:xlink="http://www.w3.org/1999/xlink" x="0px" y="0px"
	 width="512px" height="492.5px" viewBox="0 19.5 512 492.5" enable-background="new 0 19.5 512 492.5" xml:space="preserve">
<path fill="#391233" d="M423.339,116.544C385.365,56.917,322.837,21.333,256,21.333c-66.837,0-129.365,35.584-167.339,95.21
	c-4.437,6.998-4.437,15.915,0,22.912c37.974,59.626,100.501,95.21,167.339,95.21c66.837,0,129.365-35.584,167.339-95.21
	C427.776,132.458,427.776,123.542,423.339,116.544z M256,170.667c-23.573,0-42.667-19.093-42.667-42.667S232.427,85.333,256,85.333
	s42.666,19.093,42.666,42.667S279.573,170.667,256,170.667z"/>
<path fill="#391233" d="M490.667,85.333c-11.798,0-21.334,9.536-21.334,21.333v234.667H42.667V106.667
	c0-11.797-9.536-21.333-21.333-21.333S0,94.869,0,106.667v298.667C0,428.864,19.136,448,42.667,448h154.901
	c-3.904,11.051-10.667,25.152-22.208,36.693c-4.586,4.587-5.931,11.456-3.477,17.43c2.475,5.973,8.298,9.877,14.784,9.877h138.667
	c8.832,0,16-7.168,16-16c0-5.44-2.709-10.24-6.869-13.142c-10.347-11.071-16.64-24.341-20.373-34.858h155.242
	C492.864,448,512,428.864,512,405.333V106.667C512,94.869,502.464,85.333,490.667,85.333L490.667,85.333z"/>
</svg>
