<?xml version="1.0" encoding="utf-8"?>
<!-- Generator: Adobe Illustrator 16.0.0, SVG Export Plug-In . SVG Version: 6.00 Build 0)  -->
<!DOCTYPE svg PUBLIC "-//W3C//DTD SVG 1.1//EN" "http://www.w3.org/Graphics/SVG/1.1/DTD/svg11.dtd">
<svg version="1.1" id="Layer_1" xmlns="http://www.w3.org/2000/svg" xmlns:xlink="http://www.w3.org/1999/xlink" x="0px" y="0px"
	 width="200px" height="200px" viewBox="0 0 200 200" enable-background="new 0 0 200 200" xml:space="preserve">
<g>
	<g>
		<path fill="#391233" d="M99.999,0C44.772,0,0.001,44.772,0.001,99.999C0.001,155.223,44.772,200,99.998,200
			c55.226,0,100-44.775,100-100.001C199.996,44.772,155.225,0,99.999,0z M157.104,112.546c-4.504,28.62-29.292,49.107-57.399,49.107
			c-2.991,0-6.019-0.233-9.065-0.71c-31.664-4.99-53.374-34.811-48.395-66.471c2.414-15.341,10.657-28.824,23.209-37.963
			c10.807-7.867,23.692-11.695,36.856-11.071l-9.684-9.223l6.347-6.661l14.86,14.159l0.003-0.002l6.646,6.342l-6.342,6.661
			l-0.003-0.005L99.98,71.572l-6.653-6.347l8.971-9.408c-10.971-0.623-21.736,2.526-30.738,9.08
			c-10.314,7.509-17.085,18.585-19.068,31.188c-4.089,26.013,13.748,50.511,39.761,54.609c26.013,4.087,50.509-13.745,54.603-39.761
			c2.702-17.172-4.15-34.479-17.89-45.166l6.373-8.187C152.053,70.583,160.395,91.645,157.104,112.546z M80.729,116.96l-0.341-0.798
			l8.548-3.623l0.337,0.799c1.359,3.227,6.059,5.658,10.929,5.658c2.189,0,9.33-0.398,9.33-5.559c0-2.703-3.053-4.32-9.609-5.094
			c-7.357-0.824-17.441-1.952-17.441-13.058c0-6.809,5.094-11.569,13.672-12.836v-5.234h9.214v5.257
			c3.981,0.7,9.237,2.435,12.167,8.429l0.39,0.793l-7.869,3.64l-0.397-0.662c-1.379-2.275-5.432-4.061-9.223-4.061
			c-2.557,0-8.503,0.457-8.503,4.674c0,3.031,3.832,3.729,8.843,4.329c7.835,0.965,18.56,2.286,18.56,13.821
			c0,8.49-6.885,12.959-13.964,13.752v5.969h-9.212v-5.683C88.725,126.6,83.261,122.884,80.729,116.96z"/>
	</g>
</g>
</svg>
