<svg xmlns="http://www.w3.org/2000/svg" xmlns:xlink="http://www.w3.org/1999/xlink" width="212.481" height="306.87" viewBox="0 0 212.481 306.87"><defs><style>.a{fill:#f6c116;}.b{clip-path:url(#a);}</style><clipPath id="a"><rect class="a" width="212.481" height="306.87" transform="translate(1706.814 3287.94)"/></clipPath></defs><g transform="translate(-1706.814 -3287.94)"><g class="b"><path class="a" d="M1758.4,3510.722v-49.585l42.942-24.792,42.942,24.792v49.585l-42.942,24.792Z"/><path class="a" d="M1805.7,3579.392v-29.878l25.875-14.939,25.875,14.939v29.878l-25.875,14.939Z"/><path class="a" d="M1823.549,3436.566v-60.223l52.155-30.112,52.155,30.112v60.223l-52.155,30.112Z"/><path class="a" d="M1764.318,3349.888v-37.945l32.861-18.972,32.861,18.972v37.945l-32.861,18.973Z"/><path class="a" d="M1877.588,3330.174v-28.122l24.354-14.061,24.354,14.061v28.122l-24.354,14.061Z"/><path class="a" d="M1706.685,3439.286v-38.672l33.491-19.336,33.491,19.336v38.672l-33.491,19.336Z"/><path class="a" d="M1854.954,3533.615V3492.68l35.45-20.467,35.45,20.467v40.935l-35.45,20.467Z"/></g></g></svg>