<?xml version="1.0" encoding="utf-8"?>
<!-- Generator: Adobe Illustrator 16.0.0, SVG Export Plug-In . SVG Version: 6.00 Build 0)  -->
<!DOCTYPE svg PUBLIC "-//W3C//DTD SVG 1.1//EN" "http://www.w3.org/Graphics/SVG/1.1/DTD/svg11.dtd">
<svg version="1.1" id="Layer_1" xmlns="http://www.w3.org/2000/svg" xmlns:xlink="http://www.w3.org/1999/xlink" x="0px" y="0px"
	 width="200px" height="200px" viewBox="0 0 200 200" enable-background="new 0 0 200 200" xml:space="preserve">
<g>
	<g>
		<path fill="#391233" d="M100,17.166c-23.674,0-42.937,19.258-42.937,42.937v20.859c0,23.674,19.263,42.937,42.937,42.937
			c16.414,0,30.71-9.261,37.928-22.833c-5.308,2.077-11.023,3.184-16.868,3.184h-12.479c-3.557,0-6.437-2.883-6.437-6.437
			c0-3.557,2.88-6.437,6.437-6.437h12.479c8.072,0,15.8-2.927,21.812-8.071c0.043-0.777,0.064-1.558,0.064-2.343V60.102
			C142.937,36.424,123.674,17.166,100,17.166z"/>
	</g>
</g>
<g>
	<g>
		<path fill="#391233" d="M160.473,53.33h-0.755C156.342,23.366,130.851,0,100,0C69.15,0,43.658,23.366,40.283,53.33h-0.754
			c-9.393,0-17.033,7.642-17.033,17.033c0,9.392,7.641,17.033,17.033,17.033h6.808c3.555,0,6.437-2.882,6.437-6.437V60.101
			c0-26.042,21.187-47.228,47.229-47.228c26.041,0,47.228,21.187,47.228,47.228v18.708c-1.316,1.643-2.778,3.146-4.355,4.495
			c-0.344,6.389-2.095,12.41-4.943,17.76c7.296-2.85,13.834-7.527,18.907-13.667h3.636c9.393,0,17.033-7.641,17.033-17.033
			C177.506,60.971,169.864,53.33,160.473,53.33z"/>
	</g>
</g>
<g>
	<g>
		<path fill="#391233" d="M198.384,191.588l-19.297-59.842c-0.503-1.561-1.582-2.87-3.018-3.661l-29.563-16.307
			c-8.884,13.361-23.365,22.691-40.07,24.619V200h85.822C196.632,200,199.719,195.729,198.384,191.588z"/>
	</g>
</g>
<g>
	<g>
		<path fill="#391233" d="M53.495,111.778l-29.564,16.307c-1.435,0.792-2.514,2.101-3.018,3.66L1.617,191.588
			C0.277,195.744,3.383,200,7.743,200h85.819v-63.604C76.858,134.469,62.378,125.139,53.495,111.778z"/>
	</g>
</g>
</svg>
