<svg xmlns="http://www.w3.org/2000/svg" width="898.582" height="223.084" viewBox="0 0 898.582 223.084"><defs><style>.a{fill:none;stroke:#35103b;stroke-miterlimit:10;}.b,.d{fill:#35103b;}.b{font-size:74.029px;}.b,.c{font-family:SegoeUI, Segoe UI;letter-spacing:0.26em;}.c{fill:#3c113c;font-size:47.94px;}.e{fill:#fbb200;}.f{fill:#fff;}</style></defs><g transform="translate(-1650.426 -3448.038)"><path class="a" d="M1850.9,3658.2l-29-42.3,29-49.679"/><path class="a" d="M2081.894,3670.622h302.014l32.8-53.22h132.3"/><text class="b" transform="translate(1904.853 3639.482)"><tspan x="0" y="0">THE HIVE</tspan></text><line class="a" x2="158.44" transform="translate(1650.426 3616.268)"/><text class="c" transform="translate(1952.944 3558.752)"><tspan x="0" y="0">BE PART OF</tspan></text><path class="d" d="M2387.052,3519.477a41.177,41.177,0,0,1-6.917-1.865,37.484,37.484,0,0,1-3.595-1.527,27.515,27.515,0,0,0,.469,9.555c.327.153.653.307.987.451a42.508,42.508,0,0,0,10.732,2.987,48.42,48.42,0,0,0,16.038-.408,49.043,49.043,0,0,0,12.07-3.973c.069-.032.133-.068.2-.1a30.431,30.431,0,0,0-2.415-8.575,48.1,48.1,0,0,1-10.051,3.194,46.943,46.943,0,0,1-17.52.261"/><path class="d" d="M2394.775,3537.094a42.351,42.351,0,0,1-14.577-3.085c-.282-.508-.55-1.032-.808-1.564a25.128,25.128,0,0,0,8.277,10.392,24.28,24.28,0,0,0,4.7,2.889c.868.433,1.762.833,2.691,1.191,9.439,3.644,19.275,2.3,25.3-2.734a27.486,27.486,0,0,1-10.239.178,18.839,18.839,0,0,0,6.726-11.711,48.573,48.573,0,0,1-22.07,4.444"/><path class="e" d="M2389.7,3512.451q-2.012-.175-3.956-.518a42.594,42.594,0,0,1-7.484-2.028,22.284,22.284,0,0,0-1.717,6.18,37.361,37.361,0,0,0,3.594,1.527,41.085,41.085,0,0,0,6.917,1.865,46.962,46.962,0,0,0,17.52-.26,48.133,48.133,0,0,0,10.05-3.2c-.062-.144-.121-.287-.187-.429a30.841,30.841,0,0,0-3.639-5.981,49.9,49.9,0,0,1-7.211,2.039,48.745,48.745,0,0,1-13.887.8"/><path class="e" d="M2404.766,3528.67a48.367,48.367,0,0,1-16.038.407,42.455,42.455,0,0,1-10.732-2.986c-.334-.144-.66-.3-.987-.451a30.974,30.974,0,0,0,2.131,6.3c.081.173.167.339.25.509.258.533.526,1.056.808,1.564a42.374,42.374,0,0,0,14.577,3.086,48.576,48.576,0,0,0,22.07-4.446,26.4,26.4,0,0,0,.193-8.052c-.069.032-.133.068-.2.1a49.084,49.084,0,0,1-12.07,3.973"/><path class="f" d="M2422.248,3472.735h0v0"/><path class="d" d="M2412.024,3473.311a22.33,22.33,0,0,1-5.717-2.658,7.094,7.094,0,0,1-1.819-1.7,9.911,9.911,0,0,0-5.627,5.411,11.61,11.61,0,0,0,1.065,10.295,12.513,12.513,0,0,0-1.648-.063c-1.467-5.068-2.985-9.9-4.435-14.091-3.142-8.933-5.736-14.417-7.936-16.768A26.485,26.485,0,1,0,2355.9,3497.3c3.579,1.6,11.677,2.066,19.96,2.06,4.808,0,9.674-.168,13.755-.361a12.351,12.351,0,0,0,.613,1.17,15.583,15.583,0,0,0-3.812,1.2,16.653,16.653,0,0,0-8.158,8.542,42.4,42.4,0,0,0,7.484,2.026q1.943.345,3.956.52a48.713,48.713,0,0,0,13.887-.8,49.894,49.894,0,0,0,7.211-2.038,28.622,28.622,0,0,0-3.609-3.862,9.286,9.286,0,0,0,3.41-3.006c2.415-3.552,2.018-8.283-.592-12.073a14.6,14.6,0,0,0,11.03-3.2,11.788,11.788,0,0,1-6.745-1.1,12.6,12.6,0,0,1-1.85-1.082c.095.05.191.1.29.147a11.088,11.088,0,0,0,8.913.5,3.416,3.416,0,0,0,1.756-1.737c1.229-3.082-.085-6.908-2.768-10.083a7.049,7.049,0,0,1-2.323.339,22.038,22.038,0,0,1-6.284-1.139m-54.287,19.88a13.457,13.457,0,0,1,11.036-24.548c1.31.58,4.658,2.811,12.353,11.235,3.725,4.118,7.96,9.143,12.163,14.422-17.879,1.027-31.724.6-35.552-1.109m26.718-16.338c-6.386-6.992-10.92-11.023-13.865-12.325a17.893,17.893,0,0,0-11.046-1.134,13.424,13.424,0,0,1,13.2-10.858c.167,0,.334,0,.5.008a13.435,13.435,0,0,1,9.384,4.264c.978,1.046,3.185,4.409,6.97,15.175,1.731,5,3.566,10.951,5.292,17.128-3.62-4.472-7.21-8.7-10.432-12.258"/><path class="d" d="M2412.4,3472.116c4.383,1.4,8.28,1.442,8.706.106a.091.091,0,0,1,0-.016l.006-.012,0-.017,0-.012,0-.014c0-.006.006-.008.007-.013v-.016l.007-.012,0-.016.007-.014a.072.072,0,0,0,0-.013l.006-.014s0-.01,0-.015.006-.008.006-.013l0-.015.007-.014,0-.014s.006-.009.006-.013l0-.016s.006-.007.006-.012,0-.011,0-.016.005-.007.006-.012l0-.015a.093.093,0,0,1,.007-.014l0-.015s.006-.008.007-.013l0-.015.006-.012,0-.016s0-.009,0-.013l0-.015,0-.013a.049.049,0,0,0,0-.015l.007-.013v-.015l.007-.014s0-.01,0-.014.005-.009.007-.013a.06.06,0,0,1,0-.015l.006-.013,0-.016.006-.012c0-.005,0-.011,0-.015s0-.009.007-.013v-.016l.007-.013,0-.015c0-.005.006-.008.007-.013l0-.015.007-.013,0-.015s.006-.009.006-.013,0-.01,0-.014a.105.105,0,0,1,.007-.015l0-.013c0-.006.006-.009.007-.014a.082.082,0,0,0,0-.017l.006-.012,0-.015.006-.013s0-.01,0-.015l.008-.012c0-.005,0-.01,0-.016l.006-.012,0-.016.006-.014,0-.013c0-.005.005-.01.007-.015l0-.014s.005-.009.006-.013l0-.015.006-.013,0-.016s.006-.008.007-.012v-.015c0-.006.006-.008.007-.013l0-.015.007-.014a.037.037,0,0,0,0-.015l.007-.013s0-.01,0-.014l.007-.014v-.015l.007-.013a.08.08,0,0,0,0-.015l.007-.013,0-.014.007-.014,0-.015.007-.013c0-.005,0-.01,0-.017l.007-.011,0-.015.007-.014,0-.015.006-.012a.043.043,0,0,0,0-.015l.008-.013v-.016a.034.034,0,0,0,.007-.013l0-.014.007-.014a.034.034,0,0,0,0-.015.054.054,0,0,0,.007-.013.041.041,0,0,0,0-.015l.007-.013,0-.014.007-.014v-.015l.008-.013,0-.015.006-.014a.078.078,0,0,0,0-.015l.008-.013v-.014l.007-.013,0-.016.007-.013,0-.014c0-.005.006-.009.006-.014a.079.079,0,0,0,0-.014l.009-.014v-.015l.007-.013,0-.014.007-.014,0-.015.007-.013v-.015l.008-.014v-.015l.007-.013,0-.015.007-.012a.079.079,0,0,1,0-.016s.005-.009.006-.014l0-.013.008-.014v-.015l.009-.013v-.014l.007-.014,0-.015.008-.013v-.015l.007-.013,0-.015c0-.006.006-.008.007-.014s0-.01,0-.014.006-.009.006-.013l0-.015.007-.013a.047.047,0,0,1,0-.016l.006-.013,0-.015.008-.014v-.013l.007-.014s0-.01,0-.014l.006-.014,0-.016.007-.012,0-.014.007-.014a.045.045,0,0,1,0-.015l.006-.013v-.016l.008-.012v-.015l.007-.013,0-.015c0-.005.006-.009.006-.014s0-.01,0-.015a.056.056,0,0,0,.007-.013l0-.014.007-.013v-.016l.008-.013,0-.014c0-.006.005-.009.007-.014l0-.015.007-.013v-.015l.006-.013,0-.016a.056.056,0,0,0,.007-.013l0-.015.006-.012,0-.015a.034.034,0,0,0,.007-.014.068.068,0,0,0,0-.014l.006-.014a.04.04,0,0,0,0-.014l.007-.014c0-.005,0-.01,0-.014s.006-.008.007-.014l0-.015.007-.013,0-.015.006-.013,0-.014s.007-.009.007-.014a.073.073,0,0,1,0-.015s.006-.008.007-.013l0-.015c0-.005.006-.009.007-.014l0-.014s.005-.008.006-.013l0-.016s.007-.008.007-.012l0-.016a.059.059,0,0,0,.007-.013.068.068,0,0,0,0-.014l.007-.014a.052.052,0,0,0,0-.015.033.033,0,0,0,.007-.013l0-.015s0-.008.006-.014l0-.013.006-.014,0-.014.005-.013a.108.108,0,0,0,0-.017s.005-.007.006-.013,0-.01,0-.015l.006-.013,0-.014.007-.013,0-.015s0-.009.006-.014,0-.01,0-.014,0-.009.006-.014,0-.009,0-.014,0-.009.006-.014a.063.063,0,0,0,0-.015l.006-.013s0-.011,0-.015l.006-.013,0-.014.005-.014,0-.015s0-.008.007-.013l0-.016.007-.013,0-.014.007-.014,0-.014.007-.014v-.014l.007-.014,0-.015s.005-.008.007-.013l0-.014a.064.064,0,0,1,.006-.014l0-.016.006-.012,0-.015.007-.013,0-.015.007-.014v-.014l.008-.013a.08.08,0,0,1,0-.015s.005-.009.006-.013a.089.089,0,0,0,0-.015l.007-.014,0-.014.007-.014,0-.015s0-.008.006-.013l0-.014c0-.005,0-.009.007-.013v-.015c0-.006.007-.01.008-.015l0-.014.007-.013,0-.015.006-.013s0-.011,0-.015l.006-.014,0-.014.007-.014v-.014l.007-.013s0-.011,0-.015l.007-.014,0-.015.007-.014v-.014l.007-.013,0-.015.005-.012,0-.016.007-.014,0-.014.007-.013,0-.015.007-.012,0-.016.007-.014v-.014l.008-.014,0-.014.008-.014v-.015l.008-.012v-.015l.008-.014v-.014l.008-.013,0-.016.007-.013,0-.015.007-.014v-.014l.008-.013,0-.015.007-.013,0-.015.008-.014v-.014s.006-.009.006-.014l0-.014.007-.014s0-.01,0-.015a.055.055,0,0,0,.008-.014v-.013l.008-.014v-.015l.007-.013,0-.015.008-.012v-.016l.008-.012v-.016l.008-.014v-.014c0-.005.006-.009.007-.014l0-.014.008-.014v-.014a.1.1,0,0,0,.008-.014l0-.015.006-.013v-.014l.007-.014,0-.015.006-.013s0-.011,0-.015l.006-.013,0-.015.007-.013,0-.014.007-.014,0-.015.007-.014a.066.066,0,0,1,0-.014l.007-.014v-.014l.007-.013c0-.005,0-.011,0-.015s0-.009.006-.013l0-.016.007-.013v-.014c0-.006.006-.008.007-.013l0-.013-5.76-.057a9.609,9.609,0,0,1-4.669-1.487l-5.371-3.725,0,0s0,.011,0,.015,0,.009-.005.014,0,.01,0,.015l-.006.014,0,.014-.007.013,0,.015-.007.013s0,.011,0,.015l-.006.013,0,.015-.008.014,0,.014-.006.014a.032.032,0,0,0,0,.014l-.007.014,0,.016-.008.012,0,.014-.007.014v.015l-.007.013c0,.006,0,.011,0,.015l-.007.014,0,.013-.006.014a.08.08,0,0,0,0,.015c0,.005-.006.008-.006.013a.026.026,0,0,0,0,.015l-.007.014s0,.009,0,.014-.007.009-.007.013l0,.016s-.005.008-.005.013,0,.01,0,.014,0,.009-.006.014l0,.014-.006.014s0,.01,0,.015l-.006.013a.04.04,0,0,0,0,.015l-.007.014,0,.013-.007.014v.015s-.007.008-.008.014,0,.009,0,.014-.005.009-.006.014l0,.014-.007.014a.041.041,0,0,1,0,.014s0,.009-.006.013l0,.015s0,.009-.006.014l0,.014c0,.006-.007.009-.007.014l0,.015s-.006.008-.007.013a.073.073,0,0,0,0,.016s-.006.008-.006.012,0,.011,0,.015l-.007.013,0,.015-.006.013c0,.006,0,.01,0,.015l-.006.013s0,.01,0,.015-.006.009-.007.014l0,.014-.006.013,0,.015a.046.046,0,0,1-.006.013l0,.016-.007.014,0,.013-.007.013c0,.005,0,.011,0,.015l-.006.013a.031.031,0,0,0,0,.016l-.006.013,0,.015c0,.005-.006.008-.006.013l0,.014c0,.006-.006.009-.007.015V3463s-.006.008-.007.014l0,.014s-.005.009-.007.013l0,.015-.007.014a.107.107,0,0,1,0,.015.05.05,0,0,1-.007.013l0,.015-.006.013s0,.01,0,.015,0,.008,0,.013l0,.015s-.006.009-.007.013l0,.015s-.005.008-.006.014l0,.014-.007.014,0,.014-.007.014a.071.071,0,0,1,0,.014l-.006.014s0,.01,0,.014l-.006.013,0,.015-.006.013c0,.005,0,.011,0,.017l-.007.012,0,.015-.007.012,0,.016-.007.013,0,.015-.007.014,0,.014-.007.013v.015l-.006.013a.027.027,0,0,0,0,.015l-.007.014,0,.014-.007.013,0,.015a.055.055,0,0,0-.007.014l0,.015-.007.014,0,.013-.006.014,0,.015-.007.012,0,.016-.006.012,0,.016-.007.014v.013c0,.005-.007.009-.008.014v.016l-.007.012,0,.015-.007.014,0,.014-.007.013v.016l-.009.012v.016c0,.005,0,.007-.007.013v.014l-.008.014v.015l-.008.013,0,.015-.007.014,0,.014-.007.013a.08.08,0,0,1,0,.015l-.007.014,0,.014-.006.014,0,.014-.007.013,0,.015-.006.013s0,.011,0,.015,0,.009-.007.013v.016l-.008.013,0,.015-.007.014v.014s-.006.009-.006.013l0,.014-.007.015,0,.014-.006.013a.08.08,0,0,1,0,.015l-.007.013v.016l-.009.012v.015l-.007.013,0,.015-.007.014,0,.015-.008.013v.015l-.008.014a.1.1,0,0,1,0,.014l-.006.013c0,.006,0,.01,0,.015l-.007.013s0,.01,0,.014l-.006.014,0,.015-.007.013,0,.016-.008.013,0,.015-.006.012c0,.005,0,.01,0,.015s-.005.008-.007.013a.091.091,0,0,1,0,.016l-.006.013,0,.015-.006.013,0,.014s-.006.008-.008.014v.015l-.007.013,0,.015-.007.014,0,.014a.077.077,0,0,0-.007.013l0,.015-.006.013a.051.051,0,0,0,0,.015l-.007.014v.014l-.008.013a.105.105,0,0,1,0,.016l-.007.012,0,.016-.007.013a.078.078,0,0,1,0,.015s-.005.008-.006.013,0,.01,0,.014l-.007.014a.057.057,0,0,1,0,.016s-.005.008-.005.013l0,.013-.007.014a.088.088,0,0,1,0,.016s-.006.008-.006.012l0,.015-.006.013c0,.006,0,.01,0,.015s0,.009-.006.014,0,.009,0,.014l-.006.014s0,.01,0,.015-.005.007-.007.014l0,.014s-.005.008-.006.013l0,.015s0,.008-.006.013l0,.015-.007.013,0,.015-.007.014,0,.015s-.006.008-.007.013l0,.014c0,.005-.005.008-.006.013l0,.016s-.005.007-.006.013,0,.01,0,.015l-.006.013s0,.01,0,.015l-.005.013c0,.005,0,.01,0,.015l-.006.013,0,.014-.007.014s0,.01,0,.015l-.007.014,0,.014-.007.013,0,.015a.076.076,0,0,1-.008.013v.015c0,.006,0,.008-.008.014v.015l-.008.013v.014s0,.009-.006.013a.071.071,0,0,0,0,.015l-.007.014,0,.015-.007.013,0,.014-.007.015,0,.014-.007.013,0,.014a.091.091,0,0,1-.008.014.069.069,0,0,1,0,.015l-.006.013,0,.014-.007.014s0,.01,0,.016,0,.007-.007.013,0,.01,0,.015l-.006.014,0,.013-.007.013,0,.015c0,.005,0,.009-.007.014v.015a.061.061,0,0,1-.008.013v.014c0,.006-.006.009-.006.014a.038.038,0,0,0,0,.015l-.007.013s0,.009,0,.015l-.006.013c0,.006,0,.011,0,.015s0,.008-.006.013l0,.015-.006.013s0,.011,0,.016l-.007.013v.014l-.007.013,0,.016-.008.013v.014l-.007.014,0,.014-.007.014,0,.015-.008.013v.014l-.007.014,0,.015-.007.013v.016l-.008.012,0,.015-.006.013,0,.015-.008.014,0,.014-.007.014v.014l-.008.014,0,.015-.008.013v.014l-.008.014v.015l-.008.013v.015c0,.005-.007.009-.007.014l0,.015a.028.028,0,0,0-.007.011l0,.017-.007.012a.036.036,0,0,0,0,.015l-.008.014v.014l-.008.013v.016a.055.055,0,0,0-.007.013l0,.015-.008.013a.06.06,0,0,1,0,.014l-.006.014,0,.014a.033.033,0,0,1-.007.014v.015s0,.008-.008.013v.015l-.007.014,0,.015-.006.012v.015l-.009.013v.015l-.008.014v.014c0,.005-.007.009-.007.014l0,.014-.007.014v.014l-.008.014,0,.014-.007.014,0,.015-.007.013c-.425,1.337,2.782,3.552,7.166,4.946"/><path class="d" d="M2430.035,3465.023l-10.375-7.2a8.855,8.855,0,0,0-4.213-1.341l-8.854-.088-1.27-.012-2.5-.025c-1.271-.012-1.456.571-.412,1.295l1.418.984-3.836,5.78-.285-.189a.533.533,0,0,0-.67.066l-2.151,2.136a.532.532,0,0,0,.08.821l2.475,1.643a.533.533,0,0,0,.453.065.539.539,0,0,0,.336-.309l1.132-2.813a.532.532,0,0,0-.2-.643l-.285-.188,3.826-5.762,8.081,5.6a8.864,8.864,0,0,0,4.211,1.341l12.625.124c1.273.013,1.458-.571.414-1.3"/><path class="e" d="M2410.981,3480.594a1.953,1.953,0,0,0,1.991-.562,2.468,2.468,0,0,1-.463.662c-1.229,1.218-3.481.937-5.027-.626s-1.8-3.817-.57-5.034,3.48-.937,5.027.627a4.666,4.666,0,0,1,1.227,2.167,1.845,1.845,0,0,0-1.072-.833,1.955,1.955,0,0,0-2.352,1.154,1.84,1.84,0,0,0,1.239,2.445"/></g></svg>